# This file uses centimeters as units for non-parametric coordinates.

v 87.897144 79.975261 95.021973
v 87.897144 120.890739 95.021973
v 87.897156 120.890739 73.283972
v 87.897150 79.975261 73.283972
v 89.013940 79.425285 95.440540
v 89.013947 79.425261 72.865405
v 89.013947 121.440739 72.865405
v 89.013947 121.440739 95.440540
v 87.897144 79.425285 95.440540
v 87.897150 79.425261 72.865405
v 87.897156 121.440739 72.865405
v 87.897150 121.440764 95.440540
v 88.074030 121.040739 95.136127
v 88.074023 79.825285 95.136127
v 88.074042 121.040739 73.169824
v 88.074030 79.825261 73.169824
v 88.074030 120.890739 95.021973
v 88.074023 79.975261 95.021973
v 88.074042 120.890739 73.283972
v 88.074036 79.975261 73.283972
vt 1.000000 0.000000
vt 1.000000 1.000000
vt 0.000000 1.000000
vt 0.000000 0.000000
vt 0.000000 0.000000
vt 1.000000 0.000000
vt 1.000000 1.000000
vt 0.000000 1.000000
vt 0.000000 0.000000
vt 1.000000 0.000000
vt 1.000000 1.000000
vt 0.000000 1.000000
vt 0.000000 0.000000
vt 1.000000 0.000000
vt 1.000000 1.000000
vt 0.000000 1.000000
vt 0.000000 0.000000
vt 1.000000 0.000000
vt 1.000000 1.000000
vt 0.000000 1.000000
vt 0.000000 0.000000
vt 1.000000 0.000000
vt 1.000000 1.000000
vt 0.000000 1.000000
vt 1.000000 0.000000
vt 0.000000 0.000000
vt 1.000000 1.000000
vt 1.000000 0.000000
vt 1.000000 0.000000
vt 0.000000 0.000000
vt 0.000000 1.000000
vt 1.000000 1.000000
vt 1.000000 0.000000
vt 0.000000 0.000000
vt 0.000000 0.000000
vt 0.000000 1.000000
vt 1.000000 0.000000
vt 0.000000 0.000000
vt 1.000000 0.000000
vt 0.000000 0.000000
vt 1.000000 0.000000
vt 1.000000 1.000000
vt 1.000000 1.000000
vt 1.000000 0.000000
vt 1.000000 1.000000
vt 0.000000 1.000000
vt 0.000000 1.000000
vt 1.000000 1.000000
vt 0.000000 1.000000
vt 0.000000 0.000000
vt 0.000000 0.000000
vt 0.000000 1.000000
vt 0.000000 0.000000
vt 1.000000 0.000000
vt 1.000000 0.000000
vt 0.000000 0.000000
vt 1.000000 0.000000
vt 1.000000 1.000000
vt 1.000000 1.000000
vt 0.000000 1.000000
vt 0.000000 1.000000
vt 0.000000 0.000000
vt 0.000000 0.000000
vt 1.000000 0.000000
vn -1.000000 0.000000 -0.000000
vn -1.000000 0.000000 -0.000000
vn -1.000000 0.000000 -0.000000
vn -1.000000 0.000000 -0.000000
vn 1.000000 0.000000 0.000000
vn 1.000000 0.000000 0.000000
vn 1.000000 0.000000 0.000000
vn 1.000000 0.000000 0.000000
vn 0.000000 -1.000000 0.000001
vn 0.000000 -1.000000 0.000001
vn 0.000000 -1.000000 0.000001
vn 0.000000 -1.000000 0.000001
vn 0.000000 0.000000 -1.000000
vn 0.000000 0.000000 -1.000000
vn 0.000000 0.000000 -1.000000
vn 0.000000 0.000000 -1.000000
vn 0.000011 1.000000 -0.000001
vn 0.000011 1.000000 -0.000001
vn 0.000011 1.000000 -0.000001
vn 0.000011 1.000000 -0.000001
vn 0.000004 0.000000 1.000000
vn 0.000004 0.000000 1.000000
vn 0.000004 0.000000 1.000000
vn 0.000004 0.000000 1.000000
vn -0.864633 0.000000 -0.502404
vn -0.864633 0.000000 -0.502404
vn -0.864633 0.000000 -0.502404
vn -0.864633 0.000000 -0.502404
vn -0.914576 -0.404414 0.000000
vn -0.914576 -0.404414 0.000000
vn -0.914576 -0.404414 0.000000
vn -0.914576 -0.404414 0.000000
vn -0.864638 0.000000 0.502396
vn -0.864638 0.000000 0.502396
vn -0.864638 0.000000 0.502396
vn -0.864638 0.000000 0.502396
vn -0.914575 0.404417 -0.000001
vn -0.914575 0.404417 -0.000001
vn -0.914575 0.404417 -0.000001
vn -0.914575 0.404417 -0.000001
vn -1.000000 0.000000 0.000000
vn -1.000000 0.000000 0.000000
vn -1.000000 0.000000 0.000000
vn -1.000000 0.000000 0.000000
vn -1.000000 0.000017 -0.000001
vn -1.000000 0.000017 -0.000001
vn -1.000000 0.000017 -0.000001
vn -1.000000 0.000017 -0.000001
vn -1.000000 0.000000 0.000027
vn -1.000000 0.000000 0.000027
vn -1.000000 0.000000 0.000027
vn -1.000000 0.000000 0.000027
vn -1.000000 0.000058 -0.000000
vn -1.000000 0.000058 -0.000000
vn -1.000000 0.000058 -0.000000
vn -1.000000 0.000058 -0.000000
vn 0.000000 0.000000 1.000000
vn 0.000000 0.000000 1.000000
vn 0.000000 0.000000 1.000000
vn 0.000000 0.000000 1.000000
vn 0.000000 1.000000 0.000000
vn 0.000000 1.000000 0.000000
vn 0.000000 1.000000 0.000000
vn 0.000000 1.000000 0.000000
vn 0.000000 0.000000 -1.000000
vn 0.000000 0.000000 -1.000000
vn 0.000000 0.000000 -1.000000
vn 0.000000 0.000000 -1.000000
vn 0.000000 -1.000000 -0.000001
vn 0.000000 -1.000000 -0.000001
vn 0.000000 -1.000000 -0.000001
vn 0.000000 -1.000000 -0.000001
f 1/1/1 2/2/2 3/3/3 4/4/4
f 5/5/5 6/6/6 7/7/7 8/8/8
f 9/9/9 10/10/10 6/11/11 5/12/12
f 10/13/13 11/14/14 7/15/15 6/16/16
f 11/17/17 12/18/18 8/19/19 7/20/20
f 12/21/21 9/22/22 5/23/23 8/24/24
f 9/25/25 12/26/26 13/27/27 14/28/28
f 12/29/29 11/30/30 15/31/31 13/32/32
f 11/33/33 10/34/34 16/35/35 15/36/36
f 10/37/37 9/38/38 14/39/39 16/40/40
f 14/41/41 13/42/42 17/43/43 18/44/44
f 13/45/45 15/46/46 19/47/47 17/48/48
f 15/49/49 16/50/50 20/51/51 19/52/52
f 16/53/53 14/54/54 18/55/55 20/56/56
f 18/57/57 17/58/58 2/2/59 1/1/60
f 17/59/61 19/60/62 3/3/63 2/2/64
f 19/61/65 20/62/66 4/4/67 3/3/68
f 20/63/69 18/64/70 1/1/71 4/4/72
