# This file uses centimeters as units for non-parametric coordinates.

v 85.992365 82.040104 215.305737
v 85.992365 76.575871 215.305737
v 78.482727 76.575871 215.305737
v 78.482727 87.504338 215.305737
v 85.992365 87.504338 215.305737
v 77.992371 76.575883 215.221069
v 77.992371 76.575883 215.192700
v 77.992365 87.504313 215.192700
v 77.992365 87.504338 215.221069
v 77.992371 76.575871 214.382080
v 77.998126 76.575871 214.354761
v 77.998126 87.504338 214.354761
v 77.992365 87.504338 214.382080
v 78.050177 76.575883 215.282617
v 78.015405 76.575883 215.268042
v 78.015405 87.504313 215.268042
v 78.050177 87.504338 215.282617
v 78.108423 76.575871 215.294604
v 78.108423 87.504338 215.294604
v 78.108423 76.575871 214.308545
v 78.201880 76.575871 214.300415
v 78.201880 87.504338 214.300415
v 78.108423 87.504338 214.308545
v 78.201880 76.575871 215.302734
v 78.201880 87.504338 215.302734
v 78.342279 76.575871 215.305737
v 78.342273 87.504313 215.305737
v 78.482727 76.575871 214.297412
v 85.992365 76.575871 214.297412
v 85.992365 82.040104 214.297412
v 85.992365 87.504338 214.297412
v 78.482727 87.504338 214.297412
v 78.015405 76.575871 214.335107
v 78.050177 76.575883 214.320532
v 78.050177 87.504338 214.320532
v 78.015405 87.504338 214.335107
v 78.342279 76.575883 214.297412
v 78.342279 87.504338 214.297412
v 77.992371 76.575871 214.410425
v 77.992365 87.504338 214.410425
v 77.998126 76.575883 215.248389
v 77.998126 87.504338 215.248389
vt 0.000200 0.999700
vt 0.445900 0.999700
vt 0.445900 0.000300
vt 0.000200 0.000300
vt 0.000200 0.500000
vt 0.469900 0.999700
vt 0.471400 0.999700
vt 0.471400 0.000300
vt 0.469900 0.000300
vt 0.530100 0.999700
vt 0.531500 0.999700
vt 0.531500 0.000300
vt 0.530100 0.000300
vt 0.465600 0.999700
vt 0.467300 0.999700
vt 0.467300 0.000300
vt 0.465600 0.000300
vt 0.462900 0.999700
vt 0.462900 0.000300
vt 0.537200 0.999700
vt 0.541400 0.999700
vt 0.541400 0.000300
vt 0.537200 0.000300
vt 0.458600 0.999700
vt 0.458600 0.000300
vt 0.452300 0.999700
vt 0.452300 0.000300
vt 0.554100 0.999700
vt 0.999800 0.999700
vt 0.999800 0.500000
vt 0.999800 0.000300
vt 0.554100 0.000300
vt 0.532700 0.999700
vt 0.534500 0.999700
vt 0.534500 0.000300
vt 0.532700 0.000300
vt 0.547800 0.999700
vt 0.547800 0.000300
vt 0.528700 0.999700
vt 0.528700 0.000300
vt 0.468600 0.999700
vt 0.468600 0.000300
vt 1.000000 0.000500
vt 1.000000 0.999700
vt 0.285700 0.999600
vt 0.285700 0.000500
vt 0.076100 0.000300
vt 0.076100 0.999500
vt 0.032500 0.002900
vt 0.018000 0.010100
vt 0.009000 0.020700
vt 0.003600 0.033500
vt 0.000900 0.050800
vt 0.000000 0.074900
vt 0.000000 0.099900
vt 0.000000 0.899900
vt 0.000000 0.924900
vt 0.000900 0.949000
vt 0.003600 0.966300
vt 0.009000 0.979100
vt 0.018000 0.989700
vt 0.032500 0.996900
vt 0.054300 0.999500
vt 0.054300 0.000300
vt 1.000000 0.999700
vt 1.000000 0.000500
vt 0.076100 0.000300
vt 1.000000 0.000500
vt 1.000000 0.999700
vt 0.076100 0.999500
vt 0.000000 0.099900
vt 0.000000 0.074900
vt 0.000900 0.050800
vt 0.003600 0.033500
vt 0.009000 0.020700
vt 0.018000 0.010100
vt 0.032500 0.002900
vt 0.054300 0.000300
vt 0.076100 0.000300
vt 0.076100 0.999500
vt 0.054300 0.999500
vt 0.032500 0.996900
vt 0.018000 0.989700
vt 0.009000 0.979100
vt 0.003600 0.966300
vt 0.000900 0.949000
vt 0.000000 0.924900
vt 0.000000 0.899900
vn 0.000000 0.000000 1.000000
vn 0.000000 0.000000 1.000000
vn 0.000000 0.000000 1.000000
vn 0.000000 0.000000 1.000000
vn 0.000000 0.000000 1.000000
vn -1.000000 -0.000001 0.000000
vn -1.000000 -0.000001 0.000000
vn -1.000000 -0.000001 0.000000
vn -1.000000 -0.000001 0.000000
vn -0.978503 -0.000001 -0.206235
vn -0.978503 -0.000001 -0.206235
vn -0.978503 -0.000001 -0.206235
vn -0.978503 -0.000001 -0.206235
vn -0.386445 0.000000 0.922313
vn -0.386445 0.000000 0.922313
vn -0.386445 0.000000 0.922313
vn -0.386445 0.000000 0.922313
vn -0.201715 0.000000 0.979444
vn -0.201715 0.000000 0.979444
vn -0.201715 0.000000 0.979444
vn -0.201715 0.000000 0.979444
vn -0.086569 0.000000 -0.996246
vn -0.086569 0.000000 -0.996246
vn -0.086569 0.000000 -0.996246
vn -0.086569 0.000000 -0.996246
vn -0.086569 0.000000 0.996246
vn -0.086569 0.000000 0.996246
vn -0.086569 0.000000 0.996246
vn -0.086569 0.000000 0.996246
vn -0.021483 -0.000000 0.999769
vn -0.021483 -0.000000 0.999769
vn -0.021483 -0.000000 0.999769
vn -0.021483 -0.000000 0.999769
vn 0.000000 0.000000 -1.000000
vn 0.000000 0.000000 -1.000000
vn 0.000000 0.000000 -1.000000
vn 0.000000 0.000000 -1.000000
vn 0.000000 0.000000 -1.000000
vn 0.000102 0.000000 1.000000
vn 0.000102 0.000000 1.000000
vn 0.000102 0.000000 1.000000
vn 0.000102 0.000000 1.000000
vn -0.386444 0.000000 -0.922313
vn -0.386444 0.000000 -0.922313
vn -0.386444 0.000000 -0.922313
vn -0.386444 0.000000 -0.922313
vn -0.201715 0.000000 -0.979444
vn -0.201715 0.000000 -0.979444
vn -0.201715 0.000000 -0.979444
vn -0.201715 0.000000 -0.979444
vn -0.021380 0.000000 -0.999771
vn -0.021380 0.000000 -0.999771
vn -0.021380 0.000000 -0.999771
vn -0.021380 0.000000 -0.999771
vn -0.751110 0.000000 -0.660177
vn -0.751110 0.000000 -0.660177
vn -0.751110 0.000000 -0.660177
vn -0.751110 0.000000 -0.660177
vn 0.000000 0.000000 -1.000000
vn 0.000000 0.000000 -1.000000
vn 0.000000 0.000000 -1.000000
vn 0.000000 0.000000 -1.000000
vn -1.000000 -0.000000 0.000000
vn -1.000000 -0.000000 0.000000
vn -1.000000 -0.000000 0.000000
vn -1.000000 -0.000000 0.000000
vn -1.000000 -0.000001 0.000000
vn -1.000000 -0.000001 0.000000
vn -1.000000 -0.000001 0.000000
vn -1.000000 -0.000001 0.000000
vn -0.978481 -0.000001 0.206338
vn -0.978481 -0.000001 0.206338
vn -0.978481 -0.000001 0.206338
vn -0.978481 -0.000001 0.206338
vn -0.751111 0.000000 0.660176
vn -0.751111 0.000000 0.660176
vn -0.751111 0.000000 0.660176
vn -0.751111 0.000000 0.660176
vn 1.000000 0.000000 0.000000
vn 1.000000 0.000000 0.000000
vn 1.000000 0.000000 0.000000
vn 1.000000 0.000000 0.000000
vn 0.000000 1.000000 0.000000
vn 0.000000 1.000000 0.000000
vn 0.000000 1.000000 0.000000
vn 0.000000 1.000000 0.000000
vn -0.000021 1.000000 0.000000
vn -0.000021 1.000000 0.000000
vn -0.000021 1.000000 0.000000
vn -0.000021 1.000000 0.000000
vn -0.000021 1.000000 0.000000
vn -0.000021 1.000000 0.000000
vn -0.000021 1.000000 0.000000
vn -0.000021 1.000000 0.000000
vn -0.000021 1.000000 0.000000
vn -0.000021 1.000000 0.000000
vn -0.000021 1.000000 0.000000
vn -0.000021 1.000000 0.000000
vn -0.000021 1.000000 0.000000
vn -0.000021 1.000000 0.000000
vn -0.000021 1.000000 0.000000
vn -0.000021 1.000000 0.000000
vn -0.000021 1.000000 0.000000
vn -0.000021 1.000000 0.000000
vn 1.000000 0.000000 0.000000
vn 1.000000 0.000000 0.000000
vn 1.000000 0.000000 0.000000
vn 1.000000 0.000000 0.000000
vn 0.000000 -1.000000 0.000000
vn 0.000000 -1.000000 0.000000
vn 0.000000 -1.000000 0.000000
vn 0.000000 -1.000000 0.000000
vn -0.000013 -1.000000 -0.000008
vn -0.000013 -1.000000 -0.000008
vn -0.000013 -1.000000 -0.000008
vn -0.000013 -1.000000 -0.000008
vn -0.000013 -1.000000 -0.000008
vn -0.000013 -1.000000 -0.000008
vn -0.000013 -1.000000 -0.000008
vn -0.000013 -1.000000 -0.000008
vn -0.000013 -1.000000 -0.000008
vn -0.000013 -1.000000 -0.000008
vn -0.000013 -1.000000 -0.000008
vn -0.000013 -1.000000 -0.000008
vn -0.000013 -1.000000 -0.000008
vn -0.000013 -1.000000 -0.000008
vn -0.000013 -1.000000 -0.000008
vn -0.000013 -1.000000 -0.000008
vn -0.000013 -1.000000 -0.000008
vn -0.000013 -1.000000 -0.000008
f 5/1/1 4/2/2 3/3/3 2/4/4 1/5/5
f 9/6/6 8/7/7 7/8/8 6/9/9
f 13/10/10 12/11/11 11/12/12 10/13/13
f 17/14/14 16/15/15 15/16/16 14/17/17
f 19/18/18 17/14/19 14/17/20 18/19/21
f 23/20/22 22/21/23 21/22/24 20/23/25
f 25/24/26 19/18/27 18/19/28 24/25/29
f 27/26/30 25/24/31 24/25/32 26/27/33
f 32/28/34 31/29/35 30/30/36 29/31/37 28/32/38
f 4/2/39 27/26/40 26/27/41 3/3/42
f 36/33/43 35/34/44 34/35/45 33/36/46
f 35/34/47 23/20/48 20/23/49 34/35/50
f 22/21/51 38/37/52 37/38/53 21/22/54
f 12/11/55 36/33/56 33/36/57 11/12/58
f 38/37/59 32/28/60 28/32/61 37/38/62
f 40/39/63 13/10/64 10/13/65 39/40/66
f 8/7/67 40/39/68 39/40/69 7/8/70
f 42/41/71 9/6/72 6/9/73 41/42/74
f 16/15/75 42/41/76 41/42/77 15/16/78
f 31/43/79 5/44/80 1/45/81 30/46/82
f 5/44/83 31/43/84 32/47/85 4/48/86
f 22/49/87 23/50/88 35/51/89 36/52/90 12/53/91 13/54/92 40/55/93 8/56/94 9/57/95 42/58/96 16/59/97 17/60/98 19/61/99 25/62/100 27/63/101 4/48/102 32/47/103 38/64/104
f 1/45/105 2/65/106 29/66/107 30/46/108
f 28/67/109 29/68/110 2/69/111 3/70/112
f 39/71/113 10/72/114 11/73/115 33/74/116 34/75/117 20/76/118 21/77/119 37/78/120 28/79/121 3/80/122 26/81/123 24/82/124 18/83/125 14/84/126 15/85/127 41/86/128 6/87/129 7/88/130
