# This file uses centimeters as units for non-parametric coordinates.

v 85.967358 77.953776 208.568262
v 85.967358 77.953776 214.297412
v 78.794727 77.953776 214.297412
v 78.794720 77.953789 202.839099
v 85.967358 77.953789 202.839087
v 78.304358 77.851970 202.839099
v 78.304358 77.877519 202.839099
v 78.304364 77.877519 214.297412
v 78.304364 77.851958 214.297412
v 78.310120 76.627580 202.839087
v 78.304364 76.652177 202.839087
v 78.304364 76.652177 214.297412
v 78.310120 76.627568 214.297412
v 78.327399 77.919829 202.839099
v 78.362170 77.932951 202.839099
v 78.362170 77.932939 214.297412
v 78.327399 77.919829 214.297412
v 78.420416 77.943754 202.839099
v 78.420422 77.943742 214.297412
v 78.513873 76.578605 202.839099
v 78.420416 76.585930 202.839087
v 78.420422 76.585942 214.297412
v 78.513873 76.578605 214.297412
v 78.513873 77.951079 202.839099
v 78.513873 77.951079 214.297412
v 78.654272 77.953789 202.839099
v 78.654272 77.953776 214.297412
v 78.794727 76.575896 214.297412
v 85.967358 76.575896 214.297412
v 85.967358 76.575896 208.568262
v 85.967358 76.575908 202.839087
v 78.794720 76.575908 202.839087
v 78.362170 76.596733 202.839087
v 78.327399 76.609855 202.839099
v 78.327399 76.609855 214.297412
v 78.362177 76.596733 214.297412
v 78.654272 76.575908 202.839087
v 78.654272 76.575896 214.297412
v 78.304358 76.677727 202.839099
v 78.304364 76.677727 214.297412
v 78.310120 77.902116 202.839087
v 78.310120 77.902116 214.297412
vt 0.000200 0.999700
vt 0.437000 0.999700
vt 0.437000 0.000300
vt 0.000200 0.000300
vt 0.000200 0.500000
vt 0.466600 0.000300
vt 0.465000 0.000300
vt 0.465000 0.999700
vt 0.466600 0.999700
vt 0.536700 0.000300
vt 0.535100 0.000300
vt 0.535100 0.999700
vt 0.536700 0.999700
vt 0.461900 0.000300
vt 0.459900 0.000300
vt 0.459900 0.999700
vt 0.461900 0.999700
vt 0.456800 0.000300
vt 0.456800 0.999700
vt 0.548300 0.000300
vt 0.543300 0.000300
vt 0.543300 0.999700
vt 0.548300 0.999700
vt 0.451800 0.000300
vt 0.451800 0.999700
vt 0.444400 0.000300
vt 0.444400 0.999700
vt 0.563100 0.999700
vt 0.999800 0.999700
vt 0.999800 0.500000
vt 0.999800 0.000300
vt 0.563100 0.000300
vt 0.540200 0.000300
vt 0.538200 0.000300
vt 0.538200 0.999700
vt 0.540200 0.999700
vt 0.555700 0.000300
vt 0.555700 0.999700
vt 0.533500 0.000300
vt 0.533500 0.999700
vt 0.463400 0.000300
vt 0.463400 0.999700
vt 0.285700 0.999600
vt 0.285700 0.000500
vt 1.000000 0.000500
vt 1.000000 0.999700
vt 0.076100 0.000300
vt 0.076100 0.999500
vt 0.000000 0.899900
vt 0.000000 0.924900
vt 0.000900 0.949000
vt 0.003600 0.966300
vt 0.009000 0.979100
vt 0.018000 0.989700
vt 0.032500 0.996900
vt 0.054300 0.999500
vt 0.054300 0.000300
vt 0.032500 0.002900
vt 0.018000 0.010100
vt 0.009000 0.020700
vt 0.003600 0.033500
vt 0.000900 0.050800
vt 0.000000 0.074900
vt 0.000000 0.099900
vt 1.000000 0.000500
vt 1.000000 0.999700
vt 1.000000 0.999700
vt 0.076100 0.999500
vt 0.076100 0.000300
vt 1.000000 0.000500
vt 0.003600 0.033500
vt 0.009000 0.020700
vt 0.018000 0.010100
vt 0.032500 0.002900
vt 0.054300 0.000300
vt 0.076100 0.000300
vt 0.076100 0.999500
vt 0.054300 0.999500
vt 0.032500 0.996900
vt 0.018000 0.989700
vt 0.009000 0.979100
vt 0.003600 0.966300
vt 0.000900 0.949000
vt 0.000000 0.924900
vt 0.000000 0.899900
vt 0.000000 0.099900
vt 0.000000 0.074900
vt 0.000900 0.050800
vn 0.000000 1.000000 0.000002
vn 0.000000 1.000000 0.000002
vn 0.000000 1.000000 0.000002
vn 0.000000 1.000000 0.000002
vn 0.000000 1.000000 0.000002
vn -1.000000 0.000000 0.000001
vn -1.000000 0.000000 0.000001
vn -1.000000 0.000000 0.000001
vn -1.000000 0.000000 0.000001
vn -0.973720 -0.227747 -0.000000
vn -0.973720 -0.227747 -0.000000
vn -0.973720 -0.227747 -0.000000
vn -0.973720 -0.227747 -0.000000
vn -0.352932 0.935649 0.000000
vn -0.352932 0.935649 0.000000
vn -0.352932 0.935649 0.000000
vn -0.352932 0.935649 0.000000
vn -0.182339 0.983236 0.000000
vn -0.182339 0.983236 0.000000
vn -0.182339 0.983236 0.000000
vn -0.182339 0.983236 0.000000
vn -0.078201 -0.996938 -0.000001
vn -0.078201 -0.996938 -0.000001
vn -0.078201 -0.996938 -0.000001
vn -0.078201 -0.996938 -0.000001
vn -0.078201 0.996938 0.000001
vn -0.078201 0.996938 0.000001
vn -0.078201 0.996938 0.000001
vn -0.078201 0.996938 0.000001
vn -0.019256 0.999815 0.000000
vn -0.019256 0.999815 0.000000
vn -0.019256 0.999815 0.000000
vn -0.019256 0.999815 0.000000
vn -0.000000 -1.000000 -0.000000
vn -0.000000 -1.000000 -0.000000
vn -0.000000 -1.000000 -0.000000
vn -0.000000 -1.000000 -0.000000
vn -0.000000 -1.000000 -0.000000
vn 0.000000 1.000000 0.000002
vn 0.000000 1.000000 0.000002
vn 0.000000 1.000000 0.000002
vn 0.000000 1.000000 0.000002
vn -0.353075 -0.935595 0.000000
vn -0.353075 -0.935595 0.000000
vn -0.353075 -0.935595 0.000000
vn -0.353075 -0.935595 0.000000
vn -0.182240 -0.983254 0.000001
vn -0.182240 -0.983254 0.000001
vn -0.182240 -0.983254 0.000001
vn -0.182240 -0.983254 0.000001
vn -0.019255 -0.999815 0.000000
vn -0.019255 -0.999815 0.000000
vn -0.019255 -0.999815 0.000000
vn -0.019255 -0.999815 0.000000
vn -0.715965 -0.698136 0.000000
vn -0.715965 -0.698136 0.000000
vn -0.715965 -0.698136 0.000000
vn -0.715965 -0.698136 0.000000
vn 0.000000 -1.000000 -0.000002
vn 0.000000 -1.000000 -0.000002
vn 0.000000 -1.000000 -0.000002
vn 0.000000 -1.000000 -0.000002
vn -1.000000 -0.000267 0.000000
vn -1.000000 -0.000267 0.000000
vn -1.000000 -0.000267 0.000000
vn -1.000000 -0.000267 0.000000
vn -1.000000 0.000000 0.000001
vn -1.000000 0.000000 0.000001
vn -1.000000 0.000000 0.000001
vn -1.000000 0.000000 0.000001
vn -0.973648 0.228056 0.000000
vn -0.973648 0.228056 0.000000
vn -0.973648 0.228056 0.000000
vn -0.973648 0.228056 0.000000
vn -0.715845 0.698260 0.000000
vn -0.715845 0.698260 0.000000
vn -0.715845 0.698260 0.000000
vn -0.715845 0.698260 0.000000
vn 1.000000 0.000000 0.000000
vn 1.000000 0.000000 0.000000
vn 1.000000 0.000000 0.000000
vn 1.000000 0.000000 0.000000
vn 0.000000 0.000004 -1.000000
vn 0.000000 0.000004 -1.000000
vn 0.000000 0.000004 -1.000000
vn 0.000000 0.000004 -1.000000
vn -0.000029 0.000006 -1.000000
vn -0.000029 0.000006 -1.000000
vn -0.000029 0.000006 -1.000000
vn -0.000029 0.000006 -1.000000
vn -0.000029 0.000006 -1.000000
vn -0.000029 0.000006 -1.000000
vn -0.000029 0.000006 -1.000000
vn -0.000029 0.000006 -1.000000
vn -0.000029 0.000006 -1.000000
vn -0.000029 0.000006 -1.000000
vn -0.000029 0.000006 -1.000000
vn -0.000029 0.000006 -1.000000
vn -0.000029 0.000006 -1.000000
vn -0.000029 0.000006 -1.000000
vn -0.000029 0.000006 -1.000000
vn -0.000029 0.000006 -1.000000
vn -0.000029 0.000006 -1.000000
vn -0.000029 0.000006 -1.000000
vn 1.000000 0.000000 0.000000
vn 1.000000 0.000000 0.000000
vn 1.000000 0.000000 0.000000
vn 1.000000 0.000000 0.000000
vn 0.000000 0.000000 1.000000
vn 0.000000 0.000000 1.000000
vn 0.000000 0.000000 1.000000
vn 0.000000 0.000000 1.000000
vn -0.000014 0.000000 1.000000
vn -0.000014 0.000000 1.000000
vn -0.000014 0.000000 1.000000
vn -0.000014 0.000000 1.000000
vn -0.000014 0.000000 1.000000
vn -0.000014 0.000000 1.000000
vn -0.000014 0.000000 1.000000
vn -0.000014 0.000000 1.000000
vn -0.000014 0.000000 1.000000
vn -0.000014 0.000000 1.000000
vn -0.000014 0.000000 1.000000
vn -0.000014 0.000000 1.000000
vn -0.000014 0.000000 1.000000
vn -0.000014 0.000000 1.000000
vn -0.000014 0.000000 1.000000
vn -0.000014 0.000000 1.000000
vn -0.000014 0.000000 1.000000
vn -0.000014 0.000000 1.000000
f 5/1/1 4/2/2 3/3/3 2/4/4 1/5/5
f 9/6/6 8/7/7 7/8/8 6/9/9
f 13/10/10 12/11/11 11/12/12 10/13/13
f 17/14/14 16/15/15 15/16/16 14/17/17
f 16/15/18 19/18/19 18/19/20 15/16/21
f 23/20/22 22/21/23 21/22/24 20/23/25
f 19/18/26 25/24/27 24/25/28 18/19/29
f 25/24/30 27/26/31 26/27/32 24/25/33
f 32/28/34 31/29/35 30/30/36 29/31/37 28/32/38
f 27/26/39 3/3/40 4/2/41 26/27/42
f 36/33/43 35/34/44 34/35/45 33/36/46
f 22/21/47 36/33/48 33/36/49 21/22/50
f 38/37/51 23/20/52 20/23/53 37/38/54
f 35/34/55 13/10/56 10/13/57 34/35/58
f 28/32/59 38/37/60 37/38/61 32/28/62
f 12/11/63 40/39/64 39/40/65 11/12/66
f 40/39/67 9/6/68 6/9/69 39/40/70
f 8/7/71 42/41/72 41/42/73 7/8/74
f 42/41/75 17/14/76 14/17/77 41/42/78
f 1/43/79 30/44/80 31/45/81 5/46/82
f 32/47/83 4/48/84 5/46/85 31/45/86
f 6/49/87 7/50/88 41/51/89 14/52/90 15/53/91 18/54/92 24/55/93 26/56/94 4/48/95 32/47/96 37/57/97 20/58/98 21/59/99 33/60/100 34/61/101 10/62/102 11/63/103 39/64/104
f 29/65/105 30/44/106 1/43/107 2/66/108
f 2/67/109 3/68/110 28/69/111 29/70/112
f 35/71/113 36/72/114 22/73/115 23/74/116 38/75/117 28/76/118 3/77/119 27/78/120 25/79/121 19/80/122 16/81/123 17/82/124 42/83/125 8/84/126 9/85/127 40/86/128 12/87/129 13/88/130
