# This file uses centimeters as units for non-parametric coordinates.

v 88.565393 77.277666 80.410687
v 88.453320 77.315080 80.410687
v 88.453320 77.315068 86.144733
v 88.565393 77.277666 86.144727
v 87.428076 65.065922 80.410681
v 87.316010 65.103337 80.410681
v 87.428082 65.065910 86.144720
v 87.316010 65.103325 86.144720
vt 0.999500 0.999500
vt 0.999500 0.185800
vt 0.000500 0.185700
vt 0.000500 0.999400
vt 0.000600 0.999400
vt 0.814300 0.999500
vt 0.999500 0.000600
vt 0.185800 0.000500
vt 0.999500 0.814200
vt 0.999500 0.000500
vt 0.000500 0.000600
vt 0.000500 0.814300
vt 0.814300 0.000500
vt 0.000600 0.000600
vt 0.185800 0.999500
vt 0.999500 0.999400
vt 0.000500 0.999400
vt 0.999500 0.999400
vt 0.999500 0.000500
vt 0.000500 0.000500
vt 0.000500 0.999500
vt 0.999500 0.999500
vt 0.999500 0.000600
vt 0.000500 0.000600
vn -0.316604 -0.948558 0.000000
vn -0.316604 -0.948558 0.000000
vn -0.316604 -0.948558 0.000000
vn -0.316604 -0.948558 0.000000
vn 0.000000 -0.000000 1.000000
vn 0.000000 -0.000000 1.000000
vn 0.000000 -0.000000 1.000000
vn 0.000000 -0.000000 1.000000
vn 0.316684 0.948531 0.000005
vn 0.316684 0.948531 0.000005
vn 0.316684 0.948531 0.000005
vn 0.316684 0.948531 0.000005
vn 0.000055 0.000003 -1.000000
vn 0.000055 0.000003 -1.000000
vn 0.000055 0.000003 -1.000000
vn 0.000055 0.000003 -1.000000
vn -0.995691 0.092732 0.000001
vn -0.995691 0.092732 0.000001
vn -0.995691 0.092732 0.000001
vn -0.995691 0.092732 0.000001
vn 0.995691 -0.092731 -0.000000
vn 0.995691 -0.092731 -0.000000
vn 0.995691 -0.092731 -0.000000
vn 0.995691 -0.092731 -0.000000
f 4/1/1 3/2/2 2/3/3 1/4/4
f 1/5/5 2/6/6 6/7/7 5/8/8
f 5/9/9 6/10/10 8/11/11 7/12/12
f 7/13/13 8/14/14 3/15/15 4/16/16
f 4/17/17 1/18/18 5/19/19 7/20/20
f 2/21/21 3/22/22 8/23/23 6/24/24
