# This file uses centimeters as units for non-parametric coordinates.

v 90.450018 -11.684065 66.350000
v 90.450037 198.665910 66.349963
v 90.450006 87.831047 -174.550183
v 90.450055 -11.684053 -174.550000
vn -1.000000 -0.000000 0.000000
vn -1.000000 -0.000000 0.000000
vn -1.000000 -0.000000 0.000000
vn -1.000000 -0.000000 0.000000
f 1//1 2//2 3//3 4//4
v 90.450000 33.315935 221.600000
v 90.450000 33.315935 133.599988
v 90.450000 198.665935 133.599988
v 90.450000 198.665935 221.600000
v 81.300000 33.315935 133.599988
v 81.300000 198.665935 133.599988
v 81.300000 33.315935 108.249988
v 81.300000 198.665935 108.249988
v 90.450000 33.315935 108.249988
v 90.450000 198.665935 108.249988
v 90.450000 33.315935 66.349994
v 90.450000 198.665935 66.349994
v -81.300000 198.665935 133.599988
v -90.450000 198.665935 133.599988
v -90.450000 198.665935 221.600000
v -90.450000 198.665935 66.349994
v -90.450000 198.665935 108.249988
v -81.300000 198.665935 108.249988
vn 1.000000 0.000000 0.000000
vn 1.000000 0.000000 0.000000
vn 1.000000 0.000000 0.000000
vn 1.000000 0.000000 0.000000
vn 0.000000 0.000000 -1.000000
vn 0.000000 0.000000 -1.000000
vn 0.000000 0.000000 -1.000000
vn 0.000000 0.000000 -1.000000
vn 1.000000 0.000000 0.000000
vn 1.000000 0.000000 0.000000
vn 1.000000 0.000000 0.000000
vn 1.000000 0.000000 0.000000
vn 0.000000 0.000000 1.000000
vn 0.000000 0.000000 1.000000
vn 0.000000 0.000000 1.000000
vn 0.000000 0.000000 1.000000
vn 1.000000 0.000000 0.000000
vn 1.000000 0.000000 0.000000
vn 1.000000 0.000000 0.000000
vn 1.000000 0.000000 0.000000
vn 0.000000 1.000000 -0.000000
vn 0.000000 1.000000 -0.000000
vn 0.000000 1.000000 -0.000000
vn 0.000000 1.000000 -0.000000
vn 0.000000 1.000000 -0.000000
vn 0.000000 1.000000 -0.000000
vn 0.000000 1.000000 -0.000000
vn 0.000000 1.000000 -0.000000
vn 0.000000 1.000000 -0.000000
vn 0.000000 1.000000 -0.000000
vn 0.000000 1.000000 -0.000000
vn 0.000000 1.000000 -0.000000
f 5//5 6//6 7//7 8//8
f 6//9 9//10 10//11 7//12
f 9//13 11//14 12//15 10//16
f 11//17 13//18 14//19 12//20
f 13//21 15//22 16//23 14//24
f 17//25 18//26 19//27 8//28 7//29 10//30 12//31 14//32 16//33 20//34 21//35 22//36
v 90.449969 198.665935 66.350000
v 90.450012 87.831071 -174.550122
v -90.449976 87.831047 -174.550159
v -90.450024 198.665910 66.349976
vn -0.000000 0.908461 -0.417970
vn -0.000000 0.908461 -0.417970
vn -0.000000 0.908461 -0.417970
vn -0.000000 0.908461 -0.417970
f 23//37 24//38 25//39 26//40
