# This file uses centimeters as units for non-parametric coordinates.

v 7.127488 -7.543377 -70.451943
v -7.342873 -7.543377 -70.451943
v -7.342873 -7.543377 3.885704
v 7.043722 -7.543377 3.885704
v -3.939931 -7.543377 -61.811123
v -5.196399 -7.543377 -40.541412
v -1.060515 -7.543377 -34.293430
v 0.248306 -7.543377 -55.297270
v 3.729780 -7.543377 -37.616826
v -0.406104 -7.543377 -31.102967
v 0.876546 -7.543377 -9.833256
v 5.012430 -7.543377 -16.480045
vn 0.000000 1.000000 0.000000
vn 0.000000 1.000000 0.000000
vn 0.000000 1.000000 0.000000
vn 0.000000 1.000000 0.000000
f 1//1 2//2 3//3 4//4
