# This file uses centimeters as units for non-parametric coordinates.

v -28.117164 -38.608476 39.980548
v 27.605078 -38.608476 39.980548
v 27.605078 -38.608476 -16.386809
v -27.794598 -38.608476 -16.386809
v 14.501084 -38.608476 33.428549
v 19.339468 -38.608476 17.300551
v 3.413070 -38.608476 12.562949
v -1.626917 -38.608476 28.489348
v -15.033322 -38.608476 15.082952
v 0.893076 -38.608476 10.143746
v -4.046134 -38.608476 -5.984253
v -19.972533 -38.608476 -0.944252
vn 0.000000 1.000000 0.000000
vn 0.000000 1.000000 0.000000
vn 0.000000 1.000000 0.000000
vn 0.000000 1.000000 0.000000
f 1//1 2//2 3//3 4//4
