# This file uses centimeters as units for non-parametric coordinates.

v -92.451055 8.100062 -84.115596
v -92.389365 9.689232 -84.536924
v -91.226602 9.689235 -84.366729
v -91.288281 8.100061 -83.945410
v -92.455908 8.109040 -84.082441
v -91.293135 8.109042 -83.912246
v -91.231465 9.698210 -84.333584
v -92.394219 9.698210 -84.503770
vt 0.000500 0.000500
vt 0.000500 0.999500
vt 0.999500 0.999500
vt 0.999500 0.000500
vt 0.000500 0.000500
vt 0.999500 0.000500
vt 0.999500 0.999500
vt 0.000500 0.999500
vn 0.139884 -0.258818 -0.955743
vn 0.139884 -0.258818 -0.955743
vn 0.139884 -0.258818 -0.955743
vn 0.139884 -0.258818 -0.955743
vn -0.139890 0.258822 0.955742
vn -0.139890 0.258822 0.955742
vn -0.139890 0.258822 0.955742
vn -0.139890 0.258822 0.955741
vn -0.037482 -0.965933 0.256062
vn -0.037482 -0.965933 0.256062
vn -0.037482 -0.965933 0.256062
vn -0.037482 -0.965933 0.256062
vn 0.989440 0.000079 0.144945
vn 0.989440 0.000079 0.144945
vn 0.989440 0.000079 0.144945
vn 0.989440 0.000079 0.144945
vn 0.037479 0.965929 -0.256080
vn 0.037479 0.965929 -0.256080
vn 0.037479 0.965929 -0.256080
vn 0.037479 0.965929 -0.256080
vn -0.989453 0.000041 -0.144851
vn -0.989453 0.000041 -0.144851
vn -0.989453 0.000041 -0.144851
vn -0.989453 0.000041 -0.144851
f 1/1/1 2/2/2 3/3/3 4/4/4
f 5/5/5 6/6/6 7/7/7 8/8/8
f 1/1/9 4/4/10 6/6/11 5/5/12
f 4/4/13 3/3/14 7/7/15 6/6/16
f 3/3/17 2/2/18 8/8/19 7/7/20
f 2/2/21 1/1/22 5/5/23 8/8/24
