# This file uses centimeters as units for non-parametric coordinates.

v -96.276221 7.778487 -67.841631
v -97.763896 7.778488 -67.492871
v -97.763896 9.486468 -67.492871
v -96.276221 9.486468 -67.841631
v -97.113555 7.778488 -64.718774
v -97.113555 9.486468 -64.718774
v -95.625889 7.778487 -65.067529
v -95.625889 9.486468 -65.067529
v -97.732490 9.486468 -67.475239
v -97.732490 7.778488 -67.475239
v -96.296514 7.778487 -67.811880
v -96.296514 9.486468 -67.811880
v -97.093262 9.486468 -64.748521
v -97.093262 7.778488 -64.748521
v -95.657285 9.486468 -65.085161
v -95.657285 7.778487 -65.085161
vt -1.100900 0.000500
vt 2.100900 0.000500
vt 2.100900 0.999500
vt -1.100900 0.999500
vt -1.905600 0.000500
vt 2.905600 0.000500
vt 2.905600 0.999500
vt -1.905600 0.999500
vt -1.100900 0.000500
vt 2.100900 0.000500
vt 2.100900 0.999500
vt -1.100900 0.999500
vt -1.905600 0.000500
vt 2.905600 0.000500
vt 2.905600 0.999500
vt -1.905600 0.999500
vt -1.045300 0.999500
vt -1.045300 0.000500
vt 2.045300 0.000500
vt 2.045300 0.999500
vt -1.864600 0.999500
vt -1.864600 0.000500
vt 2.864600 0.000500
vt 2.864600 0.999500
vt -1.045300 0.999500
vt -1.045300 0.000500
vt 2.045300 0.000500
vt 2.045300 0.999500
vt -1.864600 0.999500
vt -1.864600 0.000500
vt 2.864600 0.000500
vt 2.864600 0.999500
vt -1.100900 -1.905600
vt 2.100900 -1.905600
vt 2.045300 -1.864600
vt -1.045300 -1.864600
vt -1.100900 -1.905600
vt 2.100900 -1.905600
vt 2.045300 -1.864600
vt -1.045300 -1.864600
vt -1.100900 2.905600
vt -1.045300 2.864600
vt 2.100900 2.905600
vt 2.045300 2.864600
vt 2.100900 2.905600
vt 2.045300 2.864600
vt -1.100900 2.905600
vt -1.045300 2.864600
vn -0.228245 0.000000 -0.973604
vn -0.228245 0.000000 -0.973604
vn -0.228245 0.000000 -0.973604
vn -0.228245 0.000000 -0.973604
vn -0.973604 0.000000 0.228246
vn -0.973604 0.000000 0.228246
vn -0.973604 0.000000 0.228246
vn -0.973604 0.000000 0.228246
vn 0.228246 0.000000 0.973603
vn 0.228246 0.000000 0.973603
vn 0.228246 0.000000 0.973603
vn 0.228246 0.000000 0.973603
vn 0.973604 0.000000 -0.228242
vn 0.973604 0.000000 -0.228242
vn 0.973604 0.000000 -0.228242
vn 0.973604 0.000000 -0.228242
vn 0.228245 0.000000 0.973604
vn 0.228245 0.000000 0.973604
vn 0.228245 0.000000 0.973604
vn 0.228245 0.000000 0.973604
vn 0.973604 0.000000 -0.228244
vn 0.973604 0.000000 -0.228244
vn 0.973604 0.000000 -0.228244
vn 0.973604 0.000000 -0.228244
vn -0.228245 0.000000 -0.973604
vn -0.228245 0.000000 -0.973604
vn -0.228245 0.000000 -0.973604
vn -0.228245 0.000000 -0.973604
vn -0.973604 0.000000 0.228243
vn -0.973604 0.000000 0.228243
vn -0.973604 0.000000 0.228243
vn -0.973604 0.000000 0.228243
vn -0.000001 -1.000000 0.000005
vn -0.000001 -1.000000 0.000005
vn -0.000001 -1.000000 0.000005
vn -0.000001 -1.000000 0.000005
vn 0.000000 1.000000 0.000021
vn 0.000000 1.000000 0.000021
vn 0.000000 1.000000 0.000021
vn 0.000000 1.000000 0.000021
vn 0.000000 -1.000000 0.000002
vn 0.000000 -1.000000 0.000002
vn 0.000000 -1.000000 0.000002
vn 0.000000 -1.000000 0.000002
vn 0.000000 1.000000 0.000000
vn 0.000000 1.000000 0.000000
vn 0.000000 1.000000 0.000000
vn 0.000000 1.000000 0.000000
vn -0.000001 -1.000000 0.000001
vn -0.000001 -1.000000 0.000001
vn -0.000001 -1.000000 0.000001
vn -0.000001 -1.000000 0.000001
vn 0.000000 1.000000 0.000021
vn 0.000000 1.000000 0.000021
vn 0.000000 1.000000 0.000021
vn 0.000000 1.000000 0.000021
vn 0.000000 -1.000000 -0.000002
vn 0.000000 -1.000000 -0.000002
vn 0.000000 -1.000000 -0.000002
vn 0.000000 -1.000000 -0.000002
vn 0.000000 1.000000 0.000001
vn 0.000000 1.000000 0.000001
vn 0.000000 1.000000 0.000001
vn 0.000000 1.000000 0.000001
f 1/1/1 2/2/2 3/3/3 4/4/4
f 2/5/5 5/6/6 6/7/7 3/8/8
f 5/9/9 7/10/10 8/11/11 6/12/12
f 7/13/13 1/14/14 4/15/15 8/16/16
f 9/17/17 10/18/18 11/19/19 12/20/20
f 13/21/21 14/22/22 10/23/23 9/24/24
f 15/25/25 16/26/26 14/27/27 13/28/28
f 12/29/29 11/30/30 16/31/31 15/32/32
f 2/33/33 1/34/34 11/35/35 10/36/36
f 4/37/37 3/38/38 9/39/39 12/40/40
f 5/41/41 2/33/42 10/36/43 14/42/44
f 3/38/45 6/43/46 13/44/47 9/39/48
f 7/45/49 5/41/50 14/42/51 16/46/52
f 6/43/53 8/47/54 15/48/55 13/44/56
f 1/34/57 7/45/58 16/46/59 11/35/60
f 8/47/61 4/37/62 12/40/63 15/48/64
