# This file uses centimeters as units for non-parametric coordinates.

v -130.421367 1.999995 -47.850005
v -130.421357 21.459780 -47.850000
v -153.200000 21.459780 -47.850000
v -153.200000 1.999995 -47.850005
v -122.421357 1.999995 -47.850005
v -122.421357 21.459780 -47.850000
v -128.421357 21.459780 -47.850000
v -128.421367 1.999995 -47.850005
v -161.200000 21.459780 -47.850000
v -161.200000 1.999995 -47.850005
v -155.200000 1.999995 -47.850005
v -155.200000 21.459780 -47.850000
v -154.200000 -0.000005 -48.000000
v -129.421367 -0.000005 -48.000000
v -130.421367 1.999995 -48.000000
v -153.200000 1.999995 -48.000000
v -129.421357 22.459780 -48.000000
v -130.421357 21.459780 -48.000000
v -154.200000 22.459780 -48.000000
v -153.200000 21.459780 -48.000000
v -121.421357 -0.000005 -48.000000
v -122.421357 1.999995 -48.000000
v -128.421367 1.999995 -48.000000
v -121.421357 22.459780 -48.000000
v -122.421357 21.459780 -48.000000
v -128.421357 21.459780 -48.000000
v -162.200000 22.459780 -48.000000
v -161.200000 21.459780 -48.000000
v -155.200000 21.459780 -48.000000
v -162.200000 -0.000005 -48.000000
v -161.200000 1.999995 -48.000000
v -155.200000 1.999995 -48.000000
vt -0.259300 -0.115300
vt -0.259300 1.182000
vt 1.259300 1.182000
vt 1.259300 -0.115300
vt 1.392600 -0.115300
vt 1.392600 1.182000
vt 1.792600 1.182000
vt 1.792600 -0.115300
vt -0.392600 1.182000
vt -0.392600 -0.115300
vt -0.792600 -0.115300
vt -0.792600 1.182000
vt -0.259300 -0.115300
vt 1.259300 -0.115300
vt 1.326000 -0.248700
vt -0.326000 -0.248700
vt 1.259300 1.182000
vt 1.326000 1.248700
vt -0.259300 1.182000
vt -0.326000 1.248700
vt 1.392600 -0.115300
vt 1.792600 -0.115300
vt 1.859300 -0.248700
vt 1.792600 1.182000
vt 1.859300 1.248700
vt 1.392600 1.182000
vt -0.392600 1.182000
vt -0.792600 1.182000
vt -0.859300 1.248700
vt -0.792600 -0.115300
vt -0.859300 -0.248700
vt -0.392600 -0.115300
vt 1.259300 0.495000
vt -0.259300 0.495000
vt -0.259300 0.505000
vt 1.259300 0.505000
vt 1.115300 0.495000
vt -0.182000 0.495000
vt -0.182000 0.505000
vt 1.115300 0.505000
vt 1.259300 0.495000
vt -0.259300 0.495000
vt -0.259300 0.505000
vt 1.259300 0.505000
vt 1.182000 0.495000
vt -0.115300 0.495000
vt -0.115300 0.505000
vt 1.182000 0.505000
vt -0.392600 0.495000
vt -0.792600 0.495000
vt -0.792600 0.505000
vt -0.392600 0.505000
vt 1.115300 0.495000
vt -0.182000 0.495000
vt -0.182000 0.505000
vt 1.115300 0.505000
vt 1.792600 0.495000
vt 1.392600 0.495000
vt 1.392600 0.505000
vt 1.792600 0.505000
vt 1.182000 0.495000
vt -0.115300 0.495000
vt -0.115300 0.505000
vt 1.182000 0.505000
vt -0.392600 0.495000
vt -0.792600 0.495000
vt -0.792600 0.505000
vt -0.392600 0.505000
vt 1.182000 0.495000
vt -0.115300 0.495000
vt -0.115300 0.505000
vt 1.182000 0.505000
vt 1.792600 0.495000
vt 1.392600 0.495000
vt 1.392600 0.505000
vt 1.792600 0.505000
vt 1.115300 0.495000
vt -0.182000 0.495000
vt -0.182000 0.505000
vt 1.115300 0.505000
vn 0.000000 0.000000 -1.000000
vn 0.000000 0.000000 -1.000000
vn 0.000000 0.000000 -1.000000
vn 0.000000 0.000000 -1.000000
vn 0.000000 0.000000 -1.000000
vn 0.000000 0.000000 -1.000000
vn 0.000000 0.000000 -1.000000
vn 0.000000 0.000000 -1.000000
vn 0.000000 0.000000 -1.000000
vn 0.000000 0.000000 -1.000000
vn 0.000000 0.000000 -1.000000
vn 0.000000 0.000000 -1.000000
vn 0.000000 0.000000 -1.000000
vn 0.000000 0.000000 -1.000000
vn 0.000000 0.000000 -1.000000
vn 0.000000 0.000000 -1.000000
vn 0.000000 0.000000 -1.000000
vn 0.000000 0.000000 -1.000000
vn 0.000000 0.000000 -1.000000
vn 0.000000 0.000000 -1.000000
vn 0.000000 0.000000 -1.000000
vn 0.000000 0.000000 -1.000000
vn 0.000000 0.000000 -1.000000
vn 0.000000 0.000000 -1.000000
vn 0.000000 0.000000 -1.000000
vn 0.000000 0.000000 -1.000000
vn 0.000000 0.000000 -1.000000
vn 0.000000 0.000000 -1.000000
vn 0.000000 0.000000 -1.000000
vn 0.000000 0.000000 -1.000000
vn 0.000000 0.000000 -1.000000
vn 0.000000 0.000000 -1.000000
vn 0.000000 0.000000 -1.000000
vn 0.000000 0.000000 -1.000000
vn 0.000000 0.000000 -1.000000
vn 0.000000 0.000000 -1.000000
vn 0.000000 0.000000 -1.000000
vn 0.000000 0.000000 -1.000000
vn 0.000000 0.000000 -1.000000
vn 0.000000 0.000000 -1.000000
vn 0.000000 0.000000 -1.000000
vn 0.000000 0.000000 -1.000000
vn 0.000000 0.000000 -1.000000
vn 0.000000 0.000000 -1.000000
vn 0.000000 0.000000 -1.000000
vn 0.000000 0.000000 -1.000000
vn 0.000000 0.000000 -1.000000
vn 0.000000 0.000000 -1.000000
vn 0.000000 0.000000 -1.000000
vn 0.000000 0.000000 -1.000000
vn 0.000000 0.000000 -1.000000
vn 0.000000 0.000000 -1.000000
vn 0.000000 0.000000 -1.000000
vn 0.000000 0.000000 -1.000000
vn 0.000000 0.000000 -1.000000
vn 0.000000 0.000000 -1.000000
vn 0.000000 0.000000 -1.000000
vn 0.000000 0.000000 -1.000000
vn 0.000000 0.000000 -1.000000
vn 0.000000 0.000000 -1.000000
vn 0.000000 1.000000 0.000000
vn 0.000000 1.000000 0.000000
vn 0.000000 1.000000 0.000000
vn 0.000000 1.000000 0.000000
vn -1.000000 0.000001 0.000000
vn -1.000000 0.000001 0.000000
vn -1.000000 0.000001 0.000000
vn -1.000000 0.000001 0.000000
vn 0.000000 -1.000000 0.000000
vn 0.000000 -1.000000 0.000000
vn 0.000000 -1.000000 0.000000
vn 0.000000 -1.000000 0.000000
vn 1.000000 0.000000 0.000000
vn 1.000000 0.000000 0.000000
vn 1.000000 0.000000 0.000000
vn 1.000000 0.000000 0.000000
vn 0.000000 1.000000 0.000000
vn 0.000000 1.000000 0.000000
vn 0.000000 1.000000 0.000000
vn 0.000000 1.000000 0.000000
vn -1.000000 0.000001 0.000000
vn -1.000000 0.000001 0.000000
vn -1.000000 0.000001 0.000000
vn -1.000000 0.000001 0.000000
vn 0.000000 -1.000000 0.000000
vn 0.000000 -1.000000 0.000000
vn 0.000000 -1.000000 0.000000
vn 0.000000 -1.000000 0.000000
vn 1.000000 -0.000001 0.000000
vn 1.000000 -0.000001 0.000000
vn 1.000000 -0.000001 0.000000
vn 1.000000 -0.000001 0.000000
vn 0.000000 -1.000000 0.000000
vn 0.000000 -1.000000 0.000000
vn 0.000000 -1.000000 0.000000
vn 0.000000 -1.000000 0.000000
vn 1.000000 0.000000 0.000000
vn 1.000000 0.000000 0.000000
vn 1.000000 0.000000 0.000000
vn 1.000000 0.000000 0.000000
vn 0.000000 1.000000 0.000000
vn 0.000000 1.000000 0.000000
vn 0.000000 1.000000 0.000000
vn 0.000000 1.000000 0.000000
vn -1.000000 0.000000 0.000000
vn -1.000000 0.000000 0.000000
vn -1.000000 0.000000 0.000000
vn -1.000000 0.000000 0.000000
f 4/1/1 3/2/2 2/3/3 1/4/4
f 8/5/5 7/6/6 6/7/7 5/8/8
f 12/9/9 11/10/10 10/11/11 9/12/12
f 16/13/13 15/14/14 14/15/15 13/16/16
f 15/14/17 18/17/18 17/18/19 14/15/20
f 18/17/21 20/19/22 19/20/23 17/18/24
f 20/19/25 16/13/26 13/16/27 19/20/28
f 23/21/29 22/22/30 21/23/31 14/15/32
f 22/22/33 25/24/34 24/25/35 21/23/36
f 25/24/37 26/26/38 17/18/39 24/25/40
f 26/26/41 23/21/42 14/15/43 17/18/44
f 29/27/45 28/28/46 27/29/47 19/20/48
f 28/28/49 31/30/50 30/31/51 27/29/52
f 31/30/53 32/32/54 13/16/55 30/31/56
f 32/32/57 29/27/58 19/20/59 13/16/60
f 4/33/61 1/34/62 15/35/63 16/36/64
f 1/37/65 2/38/66 18/39/67 15/40/68
f 2/41/69 3/42/70 20/43/71 18/44/72
f 3/45/73 4/46/74 16/47/75 20/48/76
f 8/49/77 5/50/78 22/51/79 23/52/80
f 5/53/81 6/54/82 25/55/83 22/56/84
f 6/57/85 7/58/86 26/59/87 25/60/88
f 7/61/89 8/62/90 23/63/91 26/64/92
f 12/65/93 9/66/94 28/67/95 29/68/96
f 9/69/97 10/70/98 31/71/99 28/72/100
f 10/73/101 11/74/102 32/75/103 31/76/104
f 11/77/105 12/78/106 29/79/107 32/80/108
