# This file uses centimeters as units for non-parametric coordinates.

v -134.417383 10.807587 -85.860508
v -134.420117 10.817645 -85.860508
v -134.420117 10.817645 -85.841436
v -134.417383 10.807587 -85.841436
v -134.427998 10.826489 -85.860508
v -134.427998 10.826489 -85.841436
v -134.440078 10.833054 -85.860508
v -134.440078 10.833054 -85.841436
v -134.454893 10.836548 -85.860508
v -134.454893 10.836548 -85.841436
v -134.470654 10.836548 -85.860508
v -134.470654 10.836548 -85.841436
v -134.485469 10.833054 -85.860508
v -134.485469 10.833054 -85.841436
v -134.497549 10.826489 -85.860508
v -134.497549 10.826489 -85.841436
v -134.505430 10.817644 -85.860508
v -134.505430 10.817644 -85.841436
v -134.508164 10.807587 -85.860508
v -134.508164 10.807587 -85.841436
v -134.505430 10.797528 -85.860508
v -134.505430 10.797528 -85.841436
v -134.497549 10.788684 -85.860508
v -134.497549 10.788684 -85.841436
v -134.485469 10.782119 -85.860508
v -134.485469 10.782119 -85.841436
v -134.470654 10.778625 -85.860508
v -134.470654 10.778625 -85.841436
v -134.454893 10.778625 -85.860508
v -134.454893 10.778625 -85.841436
v -134.440078 10.782119 -85.860508
v -134.440078 10.782119 -85.841436
v -134.427998 10.788684 -85.860508
v -134.427998 10.788684 -85.841436
v -134.420117 10.797529 -85.860508
v -134.420117 10.797529 -85.841436
vt 0.515700 0.459700
vt 0.515700 0.460200
vt 0.516700 0.460200
vt 0.516700 0.459700
vt 0.515700 0.460700
vt 0.516700 0.460700
vt 0.515700 0.461100
vt 0.516700 0.461100
vt 0.484300 0.863200
vt 0.484300 0.862400
vt 0.483300 0.862400
vt 0.483300 0.863200
vt 0.484300 0.861500
vt 0.483300 0.861500
vt 0.484300 0.860700
vt 0.483300 0.860700
vt 0.484300 0.461100
vt 0.484300 0.460700
vt 0.483300 0.460700
vt 0.483300 0.461100
vt 0.484300 0.460200
vt 0.483300 0.460200
vt 0.484300 0.459700
vt 0.483300 0.459700
vt 0.484300 0.459100
vt 0.483300 0.459100
vt 0.484300 0.458600
vt 0.483300 0.458600
vt 0.484300 0.458300
vt 0.483300 0.458300
vt 0.515700 0.860700
vt 0.515700 0.861500
vt 0.516700 0.861500
vt 0.516700 0.860700
vt 0.515700 0.862400
vt 0.516700 0.862400
vt 0.515700 0.863200
vt 0.516700 0.863200
vt 0.515700 0.458300
vt 0.515700 0.458600
vt 0.516700 0.458600
vt 0.516700 0.458300
vt 0.515700 0.459100
vt 0.516700 0.459100
vt 0.136800 0.458300
vt 0.136200 0.458600
vt 0.135700 0.459100
vt 0.135600 0.459700
vt 0.135700 0.460200
vt 0.136200 0.460700
vt 0.136800 0.461100
vt 0.137600 0.461200
vt 0.138500 0.461200
vt 0.139300 0.461100
vt 0.140000 0.460700
vt 0.140400 0.460200
vt 0.140600 0.459700
vt 0.140400 0.459100
vt 0.140000 0.458600
vt 0.139300 0.458300
vt 0.138500 0.458100
vt 0.137600 0.458100
vn 0.964968 0.262369 0.000000
vn 0.964968 0.262369 0.000000
vn 0.964968 0.262369 0.000000
vn 0.964968 0.262369 0.000000
vn 0.746359 0.665543 0.000000
vn 0.746359 0.665543 0.000000
vn 0.746359 0.665543 0.000000
vn 0.746359 0.665543 0.000000
vn 0.477338 0.878720 0.000000
vn 0.477338 0.878720 0.000000
vn 0.477338 0.878720 0.000000
vn 0.477338 0.878720 0.000000
vn 0.229686 0.973265 0.000000
vn 0.229686 0.973265 0.000000
vn 0.229686 0.973265 0.000000
vn 0.229686 0.973265 0.000000
vn 0.000000 1.000000 0.000000
vn 0.000000 1.000000 0.000000
vn 0.000000 1.000000 0.000000
vn 0.000000 1.000000 0.000000
vn -0.229536 0.973300 0.000000
vn -0.229536 0.973300 0.000000
vn -0.229536 0.973300 0.000000
vn -0.229536 0.973300 0.000000
vn -0.477338 0.878720 0.000000
vn -0.477338 0.878720 0.000000
vn -0.477338 0.878720 0.000000
vn -0.477338 0.878720 0.000000
vn -0.746884 0.664954 0.000000
vn -0.746884 0.664954 0.000000
vn -0.746884 0.664954 0.000000
vn -0.746884 0.664954 0.000000
vn -0.964968 0.262369 0.000000
vn -0.964968 0.262369 0.000000
vn -0.964968 0.262369 0.000000
vn -0.964968 0.262369 0.000000
vn -0.964968 -0.262369 0.000000
vn -0.964968 -0.262369 0.000000
vn -0.964968 -0.262369 0.000000
vn -0.964968 -0.262369 0.000000
vn -0.746789 -0.665061 0.000000
vn -0.746789 -0.665061 0.000000
vn -0.746789 -0.665061 0.000000
vn -0.746789 -0.665061 0.000000
vn -0.477338 -0.878720 0.000000
vn -0.477338 -0.878720 0.000000
vn -0.477338 -0.878720 0.000000
vn -0.477338 -0.878720 0.000000
vn -0.229536 -0.973300 0.000000
vn -0.229536 -0.973300 0.000000
vn -0.229536 -0.973300 0.000000
vn -0.229536 -0.973300 0.000000
vn 0.000000 -1.000000 0.000000
vn 0.000000 -1.000000 0.000000
vn 0.000000 -1.000000 0.000000
vn 0.000000 -1.000000 0.000000
vn 0.229686 -0.973265 0.000000
vn 0.229686 -0.973265 0.000000
vn 0.229686 -0.973265 0.000000
vn 0.229686 -0.973265 0.000000
vn 0.477338 -0.878720 0.000000
vn 0.477338 -0.878720 0.000000
vn 0.477338 -0.878720 0.000000
vn 0.477338 -0.878720 0.000000
vn 0.746455 -0.665436 0.000000
vn 0.746455 -0.665436 0.000000
vn 0.746455 -0.665436 0.000000
vn 0.746455 -0.665436 0.000000
vn 0.964968 -0.262369 0.000000
vn 0.964968 -0.262369 0.000000
vn 0.964968 -0.262369 0.000000
vn 0.964968 -0.262369 0.000000
vn -0.000036 0.000000 1.000000
vn -0.000036 0.000000 1.000000
vn -0.000036 0.000000 1.000000
vn -0.000036 0.000000 1.000000
vn -0.000036 0.000000 1.000000
vn -0.000036 0.000000 1.000000
vn -0.000036 0.000000 1.000000
vn -0.000036 0.000000 1.000000
vn -0.000036 0.000000 1.000000
vn -0.000036 0.000000 1.000000
vn -0.000036 0.000000 1.000000
vn -0.000036 0.000000 1.000000
vn -0.000036 0.000000 1.000000
vn -0.000036 0.000000 1.000000
vn -0.000036 0.000000 1.000000
vn -0.000036 0.000000 1.000000
vn -0.000036 0.000000 1.000000
vn -0.000036 0.000000 1.000000
f 1/1/1 2/2/2 3/3/3 4/4/4
f 2/2/5 5/5/6 6/6/7 3/3/8
f 5/5/9 7/7/10 8/8/11 6/6/12
f 7/9/13 9/10/14 10/11/15 8/12/16
f 9/10/17 11/13/18 12/14/19 10/11/20
f 11/13/21 13/15/22 14/16/23 12/14/24
f 13/17/25 15/18/26 16/19/27 14/20/28
f 15/18/29 17/21/30 18/22/31 16/19/32
f 17/21/33 19/23/34 20/24/35 18/22/36
f 19/23/37 21/25/38 22/26/39 20/24/40
f 21/25/41 23/27/42 24/28/43 22/26/44
f 23/27/45 25/29/46 26/30/47 24/28/48
f 25/31/49 27/32/50 28/33/51 26/34/52
f 27/32/53 29/35/54 30/36/55 28/33/56
f 29/35/57 31/37/58 32/38/59 30/36/60
f 31/39/61 33/40/62 34/41/63 32/42/64
f 33/40/65 35/43/66 36/44/67 34/41/68
f 35/43/69 1/1/70 4/4/71 36/44/72
f 32/45/73 34/46/74 36/47/75 4/48/76 3/49/77 6/50/78 8/51/79 10/52/80 12/53/81 14/54/82 16/55/83 18/56/84 20/57/85 22/58/86 24/59/87 26/60/88 28/61/89 30/62/90
