# This file uses centimeters as units for non-parametric coordinates.

v -110.800010 0.000000 -48.000000
v -110.800010 23.000000 -48.000000
v -110.800010 23.000000 -50.500000
v -110.800010 0.000000 -50.500000
v -106.800010 23.000000 -50.500000
v -106.800010 0.000000 -50.500000
v -106.800010 23.000000 -46.500000
v -106.800010 0.000000 -46.500000
v -109.800010 23.000000 -46.500000
v -109.800010 0.000000 -46.500000
v -109.800010 23.000000 -35.100000
v -109.800010 0.000000 -35.100000
v -95.600010 23.000000 -35.100000
v -95.600010 0.000000 -35.100000
v -88.900010 23.000000 -35.100000
v -88.900010 0.000000 -35.100000
v -80.300010 23.000000 -35.100000
v -80.300010 0.000000 -35.100000
v -71.400010 23.000000 -35.100000
v -71.400010 0.000000 -35.100000
v -62.400010 23.000000 -35.100000
v -62.400010 0.000000 -35.100000
v -62.400010 23.000000 -36.350000
v -62.400010 0.000000 -36.350000
v -62.400010 0.000000 -45.750000
v -62.400010 23.000000 -45.750000
v -62.400010 23.000000 -50.500000
v -62.400010 0.000000 -50.500000
v -82.400010 23.000000 -50.500000
v -82.400010 0.000000 -50.500000
v -82.400010 23.000000 -86.500000
v -82.400010 0.000000 -86.500000
v -109.800010 23.000000 -86.500000
v -109.800010 0.000000 -86.500000
v -172.700000 0.000000 -86.500000
v -172.700000 23.000000 -86.500000
v -195.355312 23.000000 -86.500000
v -195.355312 0.000000 -86.500000
vn -1.000000 0.000000 0.000000
vn -1.000000 0.000000 0.000000
vn -1.000000 0.000000 0.000000
vn -1.000000 0.000000 0.000000
vn 0.000000 0.000000 -1.000000
vn 0.000000 0.000000 -1.000000
vn 0.000000 0.000000 -1.000000
vn 0.000000 0.000000 -1.000000
vn 1.000000 0.000000 0.000000
vn 1.000000 0.000000 0.000000
vn 1.000000 0.000000 0.000000
vn 1.000000 0.000000 0.000000
vn 0.000000 0.000000 1.000000
vn 0.000000 0.000000 1.000000
vn 0.000000 0.000000 1.000000
vn 0.000000 0.000000 1.000000
vn 1.000000 0.000000 0.000000
vn 1.000000 0.000000 0.000000
vn 1.000000 0.000000 0.000000
vn 1.000000 0.000000 0.000000
vn 0.000000 0.000000 -1.000000
vn 0.000000 0.000000 -1.000000
vn 0.000000 0.000000 -1.000000
vn 0.000000 0.000000 -1.000000
vn 0.000000 0.000000 -1.000000
vn 0.000000 0.000000 -1.000000
vn 0.000000 0.000000 -1.000000
vn 0.000000 0.000000 -1.000000
vn 0.000000 0.000000 -1.000000
vn 0.000000 0.000000 -1.000000
vn 0.000000 0.000000 -1.000000
vn 0.000000 0.000000 -1.000000
vn 0.000000 0.000000 -1.000000
vn 0.000000 0.000000 -1.000000
vn 0.000000 0.000000 -1.000000
vn 0.000000 0.000000 -1.000000
vn 0.000000 0.000000 -1.000000
vn 0.000000 0.000000 -1.000000
vn 0.000000 0.000000 -1.000000
vn 0.000000 0.000000 -1.000000
vn -1.000000 0.000000 0.000000
vn -1.000000 0.000000 0.000000
vn -1.000000 0.000000 0.000000
vn -1.000000 0.000000 0.000000
vn -1.000000 0.000000 0.000000
vn -1.000000 0.000000 0.000000
vn -1.000000 0.000000 0.000000
vn -1.000000 0.000000 0.000000
vn 0.000000 0.000000 1.000000
vn 0.000000 0.000000 1.000000
vn 0.000000 0.000000 1.000000
vn 0.000000 0.000000 1.000000
vn -1.000000 0.000000 0.000000
vn -1.000000 0.000000 0.000000
vn -1.000000 0.000000 0.000000
vn -1.000000 0.000000 0.000000
vn 0.000000 0.000000 1.000000
vn 0.000000 0.000000 1.000000
vn 0.000000 0.000000 1.000000
vn 0.000000 0.000000 1.000000
vn 0.000000 0.000000 1.000000
vn 0.000000 0.000000 1.000000
vn 0.000000 0.000000 1.000000
vn 0.000000 0.000000 1.000000
f 1//1 2//2 3//3 4//4
f 4//5 3//6 5//7 6//8
f 6//9 5//10 7//11 8//12
f 8//13 7//14 9//15 10//16
f 10//17 9//18 11//19 12//20
f 12//21 11//22 13//23 14//24
f 14//25 13//26 15//27 16//28
f 16//29 15//30 17//31 18//32
f 18//33 17//34 19//35 20//36
f 20//37 19//38 21//39 22//40
f 22//41 21//42 23//43 24//44
f 25//45 26//46 27//47 28//48
f 28//49 27//50 29//51 30//52
f 30//53 29//54 31//55 32//56
f 32//57 31//58 33//59 34//60
f 35//61 36//62 37//63 38//64
