# This file uses centimeters as units for non-parametric coordinates.

v -24.860300 188.976395 177.879303
v -24.860300 188.976395 -227.852905
v -24.860300 157.480301 -227.852905
v -24.860300 157.480301 177.879303
v -208.128296 188.976395 177.879303
v -208.128296 157.480301 177.879303
v -208.129898 188.976395 228.451706
v -208.129898 157.480301 228.451706
v 181.634705 188.976395 228.451706
v 181.634705 157.480301 228.451706
v 181.635605 188.976395 178.060699
v 181.635605 157.480301 178.060699
v 58.210602 188.976395 178.060699
v 58.210602 157.480301 178.060699
v 58.210602 188.976395 -227.853104
v 58.210602 157.480301 -227.853104
vn -1.000000 0.000000 0.000000
vn -1.000000 0.000000 0.000000
vn -1.000000 0.000000 0.000000
vn -1.000000 0.000000 0.000000
vn 0.000000 0.000000 -1.000000
vn 0.000000 0.000000 -1.000000
vn 0.000000 0.000000 -1.000000
vn 0.000000 0.000000 -1.000000
vn -1.000000 0.000000 -0.000032
vn -1.000000 0.000000 -0.000032
vn -1.000000 0.000000 -0.000032
vn -1.000000 0.000000 -0.000032
vn 0.000000 0.000000 1.000000
vn 0.000000 0.000000 1.000000
vn 0.000000 0.000000 1.000000
vn 0.000000 0.000000 1.000000
vn 1.000000 0.000000 0.000018
vn 1.000000 0.000000 0.000018
vn 1.000000 0.000000 0.000018
vn 1.000000 0.000000 0.000018
vn 0.000000 0.000000 -1.000000
vn 0.000000 0.000000 -1.000000
vn 0.000000 0.000000 -1.000000
vn 0.000000 0.000000 -1.000000
vn 1.000000 0.000000 0.000000
vn 1.000000 0.000000 0.000000
vn 1.000000 0.000000 0.000000
vn 1.000000 0.000000 0.000000
vn -0.000002 0.000000 -1.000000
vn -0.000002 0.000000 -1.000000
vn -0.000002 0.000000 -1.000000
vn -0.000002 0.000000 -1.000000
vn 0.000000 -1.000000 0.000000
vn 0.000000 -1.000000 0.000000
vn 0.000000 -1.000000 0.000000
vn 0.000000 -1.000000 0.000000
vn 0.000000 -1.000000 0.000000
vn 0.000000 -1.000000 0.000000
vn 0.000000 -1.000000 0.000000
vn 0.000000 -1.000000 0.000000
vn 0.000000 1.000000 0.000000
vn 0.000000 1.000000 0.000000
vn 0.000000 1.000000 0.000000
vn 0.000000 1.000000 0.000000
vn 0.000000 1.000000 0.000000
vn 0.000000 1.000000 0.000000
vn 0.000000 1.000000 0.000000
vn 0.000000 1.000000 0.000000
f 1//1 2//2 3//3 4//4
f 5//5 1//6 4//7 6//8
f 7//9 5//10 6//11 8//12
f 9//13 7//14 8//15 10//16
f 11//17 9//18 10//19 12//20
f 13//21 11//22 12//23 14//24
f 15//25 13//26 14//27 16//28
f 2//29 15//30 16//31 3//32
f 4//33 3//34 16//35 14//36 12//37 10//38 8//39 6//40
f 15//41 2//42 1//43 5//44 7//45 9//46 11//47 13//48
