# This file uses centimeters as units for non-parametric coordinates.

v 76.123901 128.267593 -17.606100
v 76.123901 128.267593 -77.883202
v 74.986603 128.267593 -77.883202
v 74.986504 128.267593 -17.606100
v 76.123901 45.020000 -77.883202
v 74.986603 45.020000 -77.883202
v 76.123901 45.020000 -17.606100
v 74.986603 45.020000 -17.606100
vt 0.000000 0.000000
vt 0.191300 0.000000
vt 0.191300 1.000000
vt 0.000000 1.000000
vt 0.500000 0.000000
vt 0.500000 1.000000
vt 0.691300 0.000000
vt 0.691300 1.000000
vt 1.000000 0.000000
vt 1.000000 1.000000
vt 0.000000 0.000000
vt 0.000000 1.000000
vt 1.000000 1.000000
vt 1.000000 0.000000
vt 0.000000 0.000000
vt 1.000000 0.000000
vt 0.000000 1.000000
vn 0.000000 1.000000 0.000000
vn 0.000000 1.000000 0.000000
vn 0.000000 1.000000 0.000000
vn 0.000000 1.000000 0.000000
vn 0.000000 0.000000 -1.000000
vn 0.000000 0.000000 -1.000000
vn 0.000000 0.000000 -1.000000
vn 0.000000 0.000000 -1.000000
vn 0.000000 -1.000000 0.000000
vn 0.000000 -1.000000 0.000000
vn 0.000000 -1.000000 0.000000
vn 0.000000 -1.000000 0.000000
vn 0.000000 0.000000 1.000000
vn 0.000000 0.000000 1.000000
vn 0.000000 0.000000 1.000000
vn 0.000000 0.000000 1.000000
vn 1.000000 0.000000 0.000000
vn 1.000000 0.000000 0.000000
vn 1.000000 0.000000 0.000000
vn 1.000000 0.000000 0.000000
vn -1.000000 -0.000001 -0.000001
vn -1.000000 -0.000001 -0.000001
vn -1.000000 -0.000001 -0.000001
vn -1.000000 -0.000001 -0.000001
f 1/1/1 2/2/2 3/3/3 4/4/4
f 2/2/5 5/5/6 6/6/7 3/3/8
f 5/5/9 7/7/10 8/8/11 6/6/12
f 7/7/13 1/9/14 4/10/15 8/8/16
f 5/11/17 2/12/18 1/13/19 7/14/20
f 6/15/21 8/16/22 4/10/23 3/17/24
