# This file uses centimeters as units for non-parametric coordinates.

v -32.734299 158.267700 170.005295
v -32.734299 158.267700 -233.758408
v -32.734299 157.480301 -233.758408
v -32.734299 157.480301 170.005295
v -216.002197 158.267700 170.005203
v -216.002197 157.480301 170.005203
v -216.003998 158.267700 236.325699
v -216.003998 157.480301 236.325699
v 189.508606 158.267700 236.325699
v 189.508606 157.480301 236.325699
v 189.509796 158.267700 170.186707
v 189.509796 157.480301 170.186707
v 66.084602 158.267700 170.186707
v 66.084602 157.480301 170.186707
v 66.084602 158.267700 -233.758698
v 66.084602 157.480301 -233.758698
vn -1.000000 0.000000 0.000000
vn -1.000000 0.000000 0.000000
vn -1.000000 0.000000 0.000000
vn -1.000000 0.000000 0.000000
vn 0.000000 0.000000 -1.000000
vn 0.000000 0.000000 -1.000000
vn 0.000000 0.000000 -1.000000
vn 0.000000 0.000000 -1.000000
vn -1.000000 0.000000 -0.000027
vn -1.000000 0.000000 -0.000027
vn -1.000000 0.000000 -0.000027
vn -1.000000 0.000000 -0.000027
vn 0.000000 0.000000 1.000000
vn 0.000000 0.000000 1.000000
vn 0.000000 0.000000 1.000000
vn 0.000000 0.000000 1.000000
vn 1.000000 0.000000 0.000018
vn 1.000000 0.000000 0.000018
vn 1.000000 0.000000 0.000018
vn 1.000000 0.000000 0.000018
vn 0.000000 0.000000 -1.000000
vn 0.000000 0.000000 -1.000000
vn 0.000000 0.000000 -1.000000
vn 0.000000 0.000000 -1.000000
vn 1.000000 0.000000 0.000000
vn 1.000000 0.000000 0.000000
vn 1.000000 0.000000 0.000000
vn 1.000000 0.000000 0.000000
vn -0.000003 0.000000 -1.000000
vn -0.000003 0.000000 -1.000000
vn -0.000003 0.000000 -1.000000
vn -0.000003 0.000000 -1.000000
vn 0.000000 -1.000000 0.000000
vn 0.000000 -1.000000 0.000000
vn 0.000000 -1.000000 0.000000
vn 0.000000 -1.000000 0.000000
vn 0.000000 -1.000000 0.000000
vn 0.000000 -1.000000 0.000000
vn 0.000000 -1.000000 0.000000
vn 0.000000 -1.000000 0.000000
vn 0.000000 1.000000 -0.000000
vn 0.000000 1.000000 -0.000000
vn 0.000000 1.000000 -0.000000
vn 0.000000 1.000000 -0.000000
vn 0.000000 1.000000 -0.000000
vn 0.000000 1.000000 -0.000000
vn 0.000000 1.000000 -0.000000
vn 0.000000 1.000000 -0.000000
f 1//1 2//2 3//3 4//4
f 5//5 1//6 4//7 6//8
f 7//9 5//10 6//11 8//12
f 9//13 7//14 8//15 10//16
f 11//17 9//18 10//19 12//20
f 13//21 11//22 12//23 14//24
f 15//25 13//26 14//27 16//28
f 2//29 15//30 16//31 3//32
f 4//33 3//34 16//35 14//36 12//37 10//38 8//39 6//40
f 15//41 2//42 1//43 5//44 7//45 9//46 11//47 13//48
