# This file uses centimeters as units for non-parametric coordinates.

v 76.123901 33.070900 -129.608994
v 76.911301 33.070900 -129.608994
v 76.911301 33.070900 59.375401
v 76.123901 33.070900 59.375401
v 76.911301 29.921301 -129.608994
v 76.911301 29.921301 59.375401
v 76.123901 29.921301 -129.608994
v 76.123901 29.921301 59.375401
v 76.123901 29.527599 -129.608994
v 76.123901 29.527599 59.375401
v 77.305000 29.527599 -129.608994
v 77.305000 29.527599 59.375401
v 77.305000 33.464600 -129.608994
v 77.305000 33.464600 59.375401
v 76.123901 33.464600 -129.608994
v 76.123901 33.464600 59.375401
vn 0.000000 -1.000000 0.000000
vn 0.000000 -1.000000 0.000000
vn 0.000000 -1.000000 0.000000
vn 0.000000 -1.000000 0.000000
vn -1.000000 0.000000 0.000000
vn -1.000000 0.000000 0.000000
vn -1.000000 0.000000 0.000000
vn -1.000000 0.000000 0.000000
vn 0.000000 1.000000 0.000000
vn 0.000000 1.000000 0.000000
vn 0.000000 1.000000 0.000000
vn 0.000000 1.000000 0.000000
vn -1.000000 0.000000 0.000000
vn -1.000000 0.000000 0.000000
vn -1.000000 0.000000 0.000000
vn -1.000000 0.000000 0.000000
vn 0.000000 -1.000000 0.000000
vn 0.000000 -1.000000 0.000000
vn 0.000000 -1.000000 0.000000
vn 0.000000 -1.000000 0.000000
vn 1.000000 0.000000 0.000000
vn 1.000000 0.000000 0.000000
vn 1.000000 0.000000 0.000000
vn 1.000000 0.000000 0.000000
vn 0.000000 1.000000 0.000000
vn 0.000000 1.000000 0.000000
vn 0.000000 1.000000 0.000000
vn 0.000000 1.000000 0.000000
vn -1.000000 0.000000 0.000000
vn -1.000000 0.000000 0.000000
vn -1.000000 0.000000 0.000000
vn -1.000000 0.000000 0.000000
vn 0.000004 0.000000 -1.000000
vn 0.000004 0.000000 -1.000000
vn 0.000004 0.000000 -1.000000
vn 0.000004 0.000000 -1.000000
vn 0.000004 0.000000 -1.000000
vn 0.000004 0.000000 -1.000000
vn 0.000004 0.000000 -1.000000
vn 0.000004 0.000000 -1.000000
vn 0.000000 0.000000 1.000000
vn 0.000000 0.000000 1.000000
vn 0.000000 0.000000 1.000000
vn 0.000000 0.000000 1.000000
vn 0.000000 0.000000 1.000000
vn 0.000000 0.000000 1.000000
vn 0.000000 0.000000 1.000000
vn 0.000000 0.000000 1.000000
f 1//1 2//2 3//3 4//4
f 2//5 5//6 6//7 3//8
f 5//9 7//10 8//11 6//12
f 7//13 9//14 10//15 8//16
f 9//17 11//18 12//19 10//20
f 11//21 13//22 14//23 12//24
f 13//25 15//26 16//27 14//28
f 15//29 1//30 4//31 16//32
f 13//33 11//34 9//35 7//36 5//37 2//38 1//39 15//40
f 14//41 16//42 4//43 3//44 6//45 8//46 10//47 12//48
