# This file uses centimeters as units for non-parametric coordinates.

v -40.805302 0.000000 -201.254303
v -39.230499 0.000000 -201.254303
v -39.230499 3.740200 -201.254303
v -39.279701 3.887800 -201.254303
v -39.427299 3.937000 -201.254303
v -40.805302 3.937000 -201.254303
v -39.230499 0.000000 -233.939804
v -39.230499 3.740200 -233.939804
v -40.805302 0.000000 -233.939804
v -40.805302 3.937000 -233.939804
v -39.427399 3.937000 -233.939804
v -39.279701 3.887800 -233.939804
v -40.805302 0.000000 163.705902
v -39.230499 0.000000 163.705902
v -39.230499 3.740200 163.705902
v -39.279701 3.887800 163.705902
v -39.427299 3.937000 163.705902
v -40.805302 3.937000 163.705902
v -39.230499 0.000000 131.020294
v -39.230499 3.740200 131.020294
v -40.805302 0.000000 131.020294
v -40.805302 3.937000 131.020294
v -39.427399 3.937000 131.020294
v -39.279701 3.887800 131.020294
v -40.805302 0.000000 82.214401
v -39.230499 0.000000 82.214401
v -39.230499 3.740200 82.214401
v -39.279701 3.887800 82.214401
v -39.427299 3.937000 82.214401
v -40.805302 3.937000 82.214401
v -39.230499 0.000000 36.540600
v -39.230499 3.740200 36.540600
v -40.805302 0.000000 36.540600
v -40.805302 3.937000 36.540600
v -39.427299 3.937000 36.540600
v -39.279701 3.887800 36.540600
v -40.805302 0.000000 -12.273800
v -39.230499 0.000000 -12.273800
v -39.230499 3.740200 -12.273800
v -39.279701 3.887800 -12.273800
v -39.427299 3.937000 -12.273800
v -40.805302 3.937000 -12.273800
v -39.230499 0.000000 -57.947601
v -39.230499 3.740200 -57.947601
v -40.805302 0.000000 -57.947601
v -40.805302 3.937000 -57.947601
v -39.427299 3.937000 -57.947601
v -39.279701 3.887800 -57.947601
v -40.805302 0.000000 -106.761703
v -39.230499 0.000000 -106.761703
v -39.230499 3.740200 -106.761703
v -39.279701 3.887800 -106.761703
v -39.427399 3.937000 -106.761703
v -40.805302 3.937000 -106.761703
v -39.230499 0.000000 -152.435593
v -39.230499 3.740200 -152.435593
v -40.805302 0.000000 -152.435593
v -40.805302 3.937000 -152.435593
v -39.427299 3.937000 -152.435593
v -39.279701 3.887800 -152.435593
vn 0.000000 0.000000 1.000000
vn 0.000000 0.000000 1.000000
vn 0.000000 0.000000 1.000000
vn 0.000000 0.000000 1.000000
vn 0.000000 0.000000 1.000000
vn 0.000000 0.000000 1.000000
vn 1.000000 0.000000 0.000000
vn 1.000000 0.000000 0.000000
vn 1.000000 0.000000 0.000000
vn 1.000000 0.000000 0.000000
vn 0.000000 0.000000 -1.000000
vn 0.000000 0.000000 -1.000000
vn 0.000000 0.000000 -1.000000
vn 0.000000 0.000000 -1.000000
vn 0.000000 0.000000 -1.000000
vn 0.000000 0.000000 -1.000000
vn -1.000000 0.000000 0.000000
vn -1.000000 0.000000 0.000000
vn -1.000000 0.000000 0.000000
vn -1.000000 0.000000 0.000000
vn 0.000000 -1.000000 0.000000
vn 0.000000 -1.000000 0.000000
vn 0.000000 -1.000000 0.000000
vn 0.000000 -1.000000 0.000000
vn 0.000000 1.000000 -0.000000
vn 0.000000 1.000000 -0.000000
vn 0.000000 1.000000 -0.000000
vn 0.000000 1.000000 -0.000000
vn 0.948682 0.316233 0.000000
vn 0.948682 0.316233 0.000000
vn 0.948682 0.316233 0.000000
vn 0.948682 0.316233 0.000000
vn 0.316137 0.948714 -0.000000
vn 0.316137 0.948714 -0.000000
vn 0.316137 0.948714 -0.000000
vn 0.316137 0.948714 -0.000000
vn 0.000000 0.000000 1.000000
vn 0.000000 0.000000 1.000000
vn 0.000000 0.000000 1.000000
vn 0.000000 0.000000 1.000000
vn 0.000000 0.000000 1.000000
vn 0.000000 0.000000 1.000000
vn 1.000000 0.000000 0.000000
vn 1.000000 0.000000 0.000000
vn 1.000000 0.000000 0.000000
vn 1.000000 0.000000 0.000000
vn 0.000000 0.000000 -1.000000
vn 0.000000 0.000000 -1.000000
vn 0.000000 0.000000 -1.000000
vn 0.000000 0.000000 -1.000000
vn 0.000000 0.000000 -1.000000
vn 0.000000 0.000000 -1.000000
vn -1.000000 0.000000 0.000000
vn -1.000000 0.000000 0.000000
vn -1.000000 0.000000 0.000000
vn -1.000000 0.000000 0.000000
vn 0.000000 -1.000000 0.000000
vn 0.000000 -1.000000 0.000000
vn 0.000000 -1.000000 0.000000
vn 0.000000 -1.000000 0.000000
vn 0.000000 1.000000 -0.000000
vn 0.000000 1.000000 -0.000000
vn 0.000000 1.000000 -0.000000
vn 0.000000 1.000000 -0.000000
vn 0.948682 0.316232 0.000000
vn 0.948682 0.316232 0.000000
vn 0.948682 0.316232 0.000000
vn 0.948682 0.316232 0.000000
vn 0.316130 0.948716 -0.000000
vn 0.316130 0.948716 -0.000000
vn 0.316130 0.948716 -0.000000
vn 0.316130 0.948716 -0.000000
vn 0.000000 0.000000 1.000000
vn 0.000000 0.000000 1.000000
vn 0.000000 0.000000 1.000000
vn 0.000000 0.000000 1.000000
vn 0.000000 0.000000 1.000000
vn 0.000000 0.000000 1.000000
vn 1.000000 0.000000 0.000000
vn 1.000000 0.000000 0.000000
vn 1.000000 0.000000 0.000000
vn 1.000000 0.000000 0.000000
vn 0.000002 0.000000 -1.000000
vn 0.000002 0.000000 -1.000000
vn 0.000002 0.000000 -1.000000
vn 0.000002 0.000000 -1.000000
vn 0.000002 0.000000 -1.000000
vn 0.000002 0.000000 -1.000000
vn -1.000000 0.000000 0.000000
vn -1.000000 0.000000 0.000000
vn -1.000000 0.000000 0.000000
vn -1.000000 0.000000 0.000000
vn 0.000000 -1.000000 0.000000
vn 0.000000 -1.000000 0.000000
vn 0.000000 -1.000000 0.000000
vn 0.000000 -1.000000 0.000000
vn 0.000000 1.000000 0.000000
vn 0.000000 1.000000 0.000000
vn 0.000000 1.000000 0.000000
vn 0.000000 1.000000 0.000000
vn 0.948682 0.316233 0.000000
vn 0.948682 0.316233 0.000000
vn 0.948682 0.316233 0.000000
vn 0.948682 0.316233 0.000000
vn 0.316228 0.948683 0.000000
vn 0.316228 0.948683 0.000000
vn 0.316228 0.948683 0.000000
vn 0.316228 0.948683 0.000000
vn 0.000000 0.000000 1.000000
vn 0.000000 0.000000 1.000000
vn 0.000000 0.000000 1.000000
vn 0.000000 0.000000 1.000000
vn 0.000000 0.000000 1.000000
vn 0.000000 0.000000 1.000000
vn 1.000000 0.000000 0.000000
vn 1.000000 0.000000 0.000000
vn 1.000000 0.000000 0.000000
vn 1.000000 0.000000 0.000000
vn 0.000000 0.000000 -1.000000
vn 0.000000 0.000000 -1.000000
vn 0.000000 0.000000 -1.000000
vn 0.000000 0.000000 -1.000000
vn 0.000000 0.000000 -1.000000
vn 0.000000 0.000000 -1.000000
vn -1.000000 0.000000 0.000000
vn -1.000000 0.000000 0.000000
vn -1.000000 0.000000 0.000000
vn -1.000000 0.000000 0.000000
vn 0.000000 -1.000000 0.000000
vn 0.000000 -1.000000 0.000000
vn 0.000000 -1.000000 0.000000
vn 0.000000 -1.000000 0.000000
vn 0.000000 1.000000 0.000000
vn 0.000000 1.000000 0.000000
vn 0.000000 1.000000 0.000000
vn 0.000000 1.000000 0.000000
vn 0.948682 0.316233 0.000000
vn 0.948682 0.316233 0.000000
vn 0.948682 0.316233 0.000000
vn 0.948682 0.316233 0.000000
vn 0.316228 0.948683 0.000000
vn 0.316228 0.948683 0.000000
vn 0.316228 0.948683 0.000000
vn 0.316228 0.948683 0.000000
vn 0.000000 0.000000 1.000000
vn 0.000000 0.000000 1.000000
vn 0.000000 0.000000 1.000000
vn 0.000000 0.000000 1.000000
vn 0.000000 0.000000 1.000000
vn 0.000000 0.000000 1.000000
vn 1.000000 0.000000 0.000000
vn 1.000000 0.000000 0.000000
vn 1.000000 0.000000 0.000000
vn 1.000000 0.000000 0.000000
vn 0.000000 0.000000 -1.000000
vn 0.000000 0.000000 -1.000000
vn 0.000000 0.000000 -1.000000
vn 0.000000 0.000000 -1.000000
vn 0.000000 0.000000 -1.000000
vn 0.000000 0.000000 -1.000000
vn -1.000000 0.000000 0.000000
vn -1.000000 0.000000 0.000000
vn -1.000000 0.000000 0.000000
vn -1.000000 0.000000 0.000000
vn 0.000000 -1.000000 0.000000
vn 0.000000 -1.000000 0.000000
vn 0.000000 -1.000000 0.000000
vn 0.000000 -1.000000 0.000000
vn 0.000000 1.000000 0.000000
vn 0.000000 1.000000 0.000000
vn 0.000000 1.000000 0.000000
vn 0.000000 1.000000 0.000000
vn 0.948677 0.316248 0.000000
vn 0.948677 0.316248 0.000000
vn 0.948677 0.316248 0.000000
vn 0.948677 0.316248 0.000000
vn 0.316136 0.948714 0.000000
vn 0.316136 0.948714 0.000000
vn 0.316136 0.948714 0.000000
vn 0.316136 0.948714 0.000000
f 1//1 2//2 3//3 4//4 5//5 6//6
f 2//7 7//8 8//9 3//10
f 7//11 9//12 10//13 11//14 12//15 8//16
f 9//17 1//18 6//19 10//20
f 7//21 2//22 1//23 9//24
f 11//25 10//26 6//27 5//28
f 8//29 12//30 4//31 3//32
f 12//33 11//34 5//35 4//36
f 13//37 14//38 15//39 16//40 17//41 18//42
f 14//43 19//44 20//45 15//46
f 19//47 21//48 22//49 23//50 24//51 20//52
f 21//53 13//54 18//55 22//56
f 19//57 14//58 13//59 21//60
f 23//61 22//62 18//63 17//64
f 20//65 24//66 16//67 15//68
f 24//69 23//70 17//71 16//72
f 25//73 26//74 27//75 28//76 29//77 30//78
f 26//79 31//80 32//81 27//82
f 31//83 33//84 34//85 35//86 36//87 32//88
f 33//89 25//90 30//91 34//92
f 31//93 26//94 25//95 33//96
f 35//97 34//98 30//99 29//100
f 32//101 36//102 28//103 27//104
f 36//105 35//106 29//107 28//108
f 37//109 38//110 39//111 40//112 41//113 42//114
f 38//115 43//116 44//117 39//118
f 43//119 45//120 46//121 47//122 48//123 44//124
f 45//125 37//126 42//127 46//128
f 43//129 38//130 37//131 45//132
f 47//133 46//134 42//135 41//136
f 44//137 48//138 40//139 39//140
f 48//141 47//142 41//143 40//144
f 49//145 50//146 51//147 52//148 53//149 54//150
f 50//151 55//152 56//153 51//154
f 55//155 57//156 58//157 59//158 60//159 56//160
f 57//161 49//162 54//163 58//164
f 55//165 50//166 49//167 57//168
f 59//169 58//170 54//171 53//172
f 56//173 60//174 52//175 51//176
f 60//177 59//178 53//179 52//180
