# This file uses centimeters as units for non-parametric coordinates.

g default
v 471.169516 54.228098 -72.083742
v 376.369516 24.828098 -72.083742
v 405.769516 -71.171902 -72.083742
v 500.569516 -41.171902 -72.083742
v 471.169516 54.228098 -270.083742
v 471.169516 54.228098 -72.083742
v 500.569516 -41.171902 -72.083742
v 500.569516 -41.171902 -270.083742
v 500.569516 -41.171902 -270.083742
v 500.569516 -41.171902 -72.083742
v 405.769516 -71.171902 -72.083742
v 405.769516 -71.171902 -270.083742
v 405.769516 -71.171902 -270.083742
v 405.769516 -71.171902 -72.083742
v 376.369516 24.828098 -72.083742
v 376.369516 24.828098 -270.083742
v 376.369516 24.828098 -270.083742
v 376.369516 24.828098 -72.083742
v 471.169516 54.228098 -72.083742
v 471.169516 54.228098 -270.083742
v 500.569516 -41.171902 -270.083742
v 405.769516 -71.171902 -270.083742
v 376.369516 24.828098 -270.083742
v 471.169516 54.228098 -270.083742
vn 0.000000 0.000000 1.000000
vn 0.000000 0.000000 1.000000
vn 0.000000 0.000000 1.000000
vn 0.000000 0.000000 1.000000
vn 0.000000 0.000000 1.000000
vn 0.000000 0.000000 1.000000
vn 0.955649 0.294508 -0.000000
vn 0.955649 0.294508 -0.000000
vn 0.955649 0.294508 -0.000000
vn 0.955649 0.294508 -0.000000
vn 0.955649 0.294508 -0.000000
vn 0.955649 0.294508 -0.000000
vn 0.301709 -0.953400 0.000000
vn 0.301709 -0.953400 0.000000
vn 0.301709 -0.953400 0.000000
vn 0.301709 -0.953400 0.000000
vn 0.301709 -0.953400 0.000000
vn 0.301709 -0.953400 0.000000
vn -0.956166 -0.292826 0.000000
vn -0.956166 -0.292826 0.000000
vn -0.956166 -0.292826 0.000000
vn -0.956166 -0.292826 0.000000
vn -0.956166 -0.292826 0.000000
vn -0.956166 -0.292826 0.000000
vn -0.296209 0.955123 -0.000000
vn -0.296209 0.955123 -0.000000
vn -0.296209 0.955123 -0.000000
vn -0.296209 0.955123 -0.000000
vn -0.296209 0.955123 -0.000000
vn -0.296209 0.955123 -0.000000
vn 0.000000 -0.000000 -1.000000
vn 0.000000 -0.000000 -1.000000
vn 0.000000 -0.000000 -1.000000
vn 0.000000 -0.000000 -1.000000
vn 0.000000 -0.000000 -1.000000
vn 0.000000 -0.000000 -1.000000
s off
g cbox_largebox
f 1//1 2//2 3//3
f 1//4 3//5 4//6
f 5//7 6//8 7//9
f 5//10 7//11 8//12
f 9//13 10//14 11//15
f 9//16 11//17 12//18
f 13//19 14//20 15//21
f 13//22 15//23 16//24
f 17//25 18//26 19//27
f 17//28 19//29 20//30
f 21//31 22//32 23//33
f 21//34 23//35 24//36
