# This file uses centimeters as units for non-parametric coordinates.

v -13.850106 -7.864017 -23.338288
v 33.549903 -7.864017 -38.038289
v 18.849891 -7.864017 -86.038290
v -28.550103 -7.864017 -71.038289
v -13.850106 -106.864017 -23.338288
v -13.850106 -7.864017 -23.338288
v -28.550103 -7.864017 -71.038289
v -28.550103 -106.864017 -71.038289
v -28.550103 -106.864017 -71.038289
v -28.550103 -7.864017 -71.038289
v 18.849891 -7.864017 -86.038290
v 18.849891 -106.864017 -86.038290
v 18.849891 -106.864017 -86.038290
v 18.849891 -7.864017 -86.038290
v 33.549903 -7.864017 -38.038289
v 33.549903 -106.864017 -38.038289
v 33.549903 -106.864017 -38.038289
v 33.549903 -7.864017 -38.038289
v -13.850106 -7.864017 -23.338288
v -13.850106 -106.864017 -23.338288
v -28.550103 -106.864017 -71.038289
v 18.849891 -106.864017 -86.038290
v 33.549903 -106.864017 -38.038289
v -13.850106 -106.864017 -23.338288
vn 0.000000 1.000000 0.000000
vn 0.000000 1.000000 0.000000
vn 0.000000 1.000000 0.000000
vn 0.000000 1.000000 0.000000
vn 0.000000 1.000000 0.000000
vn 0.000000 1.000000 0.000000
vn -0.955649 0.000000 0.294508
vn -0.955649 0.000000 0.294508
vn -0.955649 0.000000 0.294508
vn -0.955649 0.000000 0.294508
vn -0.955649 0.000000 0.294508
vn -0.955649 0.000000 0.294508
vn -0.301709 0.000000 -0.953400
vn -0.301709 0.000000 -0.953400
vn -0.301709 0.000000 -0.953400
vn -0.301709 0.000000 -0.953400
vn -0.301709 0.000000 -0.953400
vn -0.301709 0.000000 -0.953400
vn 0.956166 0.000000 -0.292826
vn 0.956166 0.000000 -0.292826
vn 0.956166 0.000000 -0.292826
vn 0.956166 0.000000 -0.292826
vn 0.956166 0.000000 -0.292826
vn 0.956166 0.000000 -0.292826
vn 0.296209 0.000000 0.955123
vn 0.296209 0.000000 0.955123
vn 0.296209 0.000000 0.955123
vn 0.296209 0.000000 0.955123
vn 0.296209 0.000000 0.955123
vn 0.296209 0.000000 0.955123
vn 0.000000 -1.000000 -0.000000
vn 0.000000 -1.000000 -0.000000
vn 0.000000 -1.000000 -0.000000
vn 0.000000 -1.000000 -0.000000
vn 0.000000 -1.000000 -0.000000
vn 0.000000 -1.000000 -0.000000
f 1//1 2//2 3//3
f 1//4 3//5 4//6
f 5//7 6//8 7//9
f 5//10 7//11 8//12
f 9//13 10//14 11//15
f 9//16 11//17 12//18
f 13//19 14//20 15//21
f 13//22 15//23 16//24
f 17//25 18//26 19//27
f 17//28 19//29 20//30
f 21//31 22//32 23//33
f 21//34 23//35 24//36
