# This file uses centimeters as units for non-parametric coordinates.

g default
v 549.049508 202.428098 -270.083742
v 217.369516 202.428098 -270.083742
v 217.369516 -133.091909 -270.083742
v 547.129501 -133.091909 -270.083742
v 295.369516 163.428098 -270.083742
v 266.569516 67.428098 -270.083742
v 361.369516 39.228098 -270.083742
v 391.369516 134.028098 -270.083742
v 471.169516 54.228098 -270.083742
v 376.369516 24.828098 -270.083742
v 405.769516 -71.171902 -270.083742
v 500.569516 -41.171902 -270.083742
vn 0.000000 0.000000 1.000000
vn 0.000000 0.000000 1.000000
vn 0.000000 0.000000 1.000000
vn 0.000000 0.000000 1.000000
s off
g cbox_floor
f 1//1 2//2 3//3 4//4
